<svg xmlns="http://www.w3.org/2000/svg" viewBox="0 0 512 62" width="512" height="62">
	<style>
		tspan { white-space:pre }
		.shp0 { opacity: 0.502;fill: #ffffff } 
		.shp1 { fill: #ffffff } 
	</style>
	<g id="Layer">
		<g id="Layer">
			<g id="Layer">
				<g id="Layer" style="opacity: 0.702">
					<path id="Layer" fill-rule="evenodd" class="shp0" d="M59.6 31.1C59.6 45.5 47.9 57.2 33.5 57.2C19.1 57.2 7.4 45.5 7.4 31.1C7.4 16.7 19.1 5 33.5 5C47.9 5 59.6 16.7 59.6 31.1Z" />
					<path id="Layer" class="shp1" d="M8.7 23.1C8.7 22.9 8.7 22.7 8.7 22.5C8.6 22.8 8.5 23.1 8.4 23.4C8.5 23.3 8.6 23.2 8.7 23.1Z" />
					<path id="Layer" class="shp1" d="M54.3 16.5C54.4 16.8 54.7 16.9 54.8 17.2C54.8 17.2 54.9 17.2 55 17.2C55.1 17.2 55.1 17.3 55.1 17.4C55.2 17.5 55.3 17.5 55.4 17.6C55.2 17.2 54.9 16.8 54.6 16.4L54.6 16.4C54.6 16.6 54.4 16.2 54.3 16.5Z" />
					<path id="Layer" class="shp1" d="M54.5 16.1C54.4 16 54.4 15.9 54.3 15.8C54.3 15.9 54.3 16 54.4 16.1C54.4 16.1 54.4 16.1 54.5 16.1Z" />
					<path id="Layer" fill-rule="evenodd" class="shp1" d="M7.5 30.6C7.5 30.1 7.6 29.7 7.6 29.2C7.7 29.4 7.9 29.6 8 29.6C8.1 29.4 8 29.2 8 28.9C7.9 28.8 7.7 28.9 7.6 28.9C7.6 28.6 7.7 28.4 7.7 28.1C7.8 28.2 8 28.4 8.1 28.7C8 28.9 8 29 8.1 29.1C8.2 28.9 8.4 28.9 8.4 28.7C8.5 28.5 8.3 28.6 8.3 28.3C8.4 28.2 8.5 28.5 8.6 28.4C8.5 28.1 8.2 27.9 8 27.8C7.9 27.7 7.9 27.6 7.8 27.5C7.8 27.2 7.9 27 7.9 26.7C7.9 26.9 7.9 27 8 27.1C8.1 27.1 8.2 27.3 8.3 27.5C8.4 27.7 8.6 27.7 8.6 28C8.6 28.7 9.1 28.8 9 29.5C9 29.6 9.1 29.7 9.2 29.7C9.4 29.5 9.3 28.9 9.3 28.5C9.4 28.3 9.5 28.2 9.6 28.1C9.6 28.2 9.6 28.3 9.7 28.3C9.9 28.2 10 28 10.1 27.9C10.1 27.7 10 27.8 10 27.6C10.1 27.4 10.2 27.5 10.2 27.3C10.1 27.1 9.8 26.9 10 26.7C10.1 26.8 10.1 26.9 10.3 26.9C10.4 26.7 10.5 26.4 10.6 26.4C10.7 26.4 10.8 26.5 10.9 26.5C10.8 26.7 10.9 26.9 11 27.1C11.2 27 11.3 26.9 11.5 26.8C11.4 26.5 11.1 26.7 11.1 26.4C11.3 26.5 11.5 26.1 11.8 26.2C11.9 26.6 11.6 26.5 11.6 26.9C11.6 27.1 11.9 27.3 12 27.4C12.2 27.5 12.3 27.7 12.4 27.9C12.3 28.2 12.1 28.1 11.9 28.1C11.6 28.2 11.6 28 11.4 27.9C11.1 27.8 10.8 27.8 10.6 27.9C10.5 28 10.4 28.1 10.2 28.1C10.2 28.5 9.9 28.3 9.7 28.5C9.7 28.6 9.8 28.8 9.7 29C9.8 29.2 9.9 29.4 10 29.5C10.1 29.5 10.2 29.6 10.3 29.7C10.4 29.6 10.5 29.5 10.6 29.5C10.6 29.5 10.7 29.7 10.8 29.7C10.9 29.8 11 29.6 11.2 29.5C11.3 29.8 11.2 30.3 11.1 30.5C11.1 30.7 11.2 30.6 11.2 30.8C10.9 30.8 10.7 31.3 10.4 31C10.1 31.5 9.7 31 9.4 31.1C9.1 30.8 8.6 30.3 8.4 31C8.5 31.6 8.1 31.5 8 31.2C7.9 31.2 7.8 31.1 7.7 31.1C7.7 30.7 7.4 30.7 7.5 30.6ZM9 29.9C9.1 30.1 9.5 30.2 9.6 29.9C9.5 29.7 9.1 29.8 9 29.8C9 29.8 9 29.8 9 29.9Z" />
					<path id="Layer" class="shp1" d="M9.1 22.4C9.3 22.2 9.2 21.8 9.1 21.6C9.2 21.4 9.4 21.4 9.5 21.3C9.6 21.5 10 21.4 10.1 21.1C10 20.8 9.8 20.9 9.7 21C9.5 21.1 9.4 21.1 9.3 21.1C9.2 21.3 9.2 21.4 9.1 21.6C9.1 21.6 9.1 21.7 9.1 21.8L9.1 21.8L9.1 21.8C9.1 21.9 9 22 9 22L9.1 22C9 22.1 9 22.4 9.1 22.4Z" />
					<path id="Layer" fill-rule="evenodd" class="shp1" d="M21.2 11.2C21.15 11.2 21.1 11.17 21.03 11.13C21.06 11.16 21.08 11.18 21.1 11.2C21.2 11.2 21.2 11.2 21.2 11.2ZM20.84 11.02C20.83 11.01 20.81 11.01 20.8 11C20.9 10.5 21.4 10.7 21.5 10.3C21.7 10.4 21.7 10.6 21.9 10.7C21.9 10.9 21.7 10.8 21.7 11C21.7 11.2 21.8 11 21.9 11.1C21.9 11.2 21.9 11.2 21.9 11.3C22 11.2 22.1 11.2 22.2 11.4C22.1 11.5 22.1 11.6 22.1 11.9C21.9 12.3 21.7 11.8 21.5 11.9C21.4 11.7 21.2 11.7 21.1 11.5C20.9 11.5 20.6 11.4 20.6 11.1C20.68 11.02 20.77 11 20.84 11.02ZM21.2 11.2C21.2 11.2 21.2 11.2 21.2 11.2ZM21.03 11.13C20.98 11.09 20.91 11.04 20.84 11.02C20.92 11.06 20.98 11.1 21.03 11.13ZM21.2 11C21.3 11 21.5 11 21.5 10.9C21.4 10.9 21.3 10.8 21.2 11Z" />
					<path id="Layer" class="shp1" d="M21.5 10.9C21.4 10.9 21.2 10.8 21.2 11C21.4 11 21.5 11.1 21.5 10.9Z" />
					<path id="Layer" class="shp1" d="M20.7 10.4C20.7 10.1 20.3 10.2 20.5 10.5C20.6 10.5 20.7 10.5 20.7 10.4Z" />
					<path id="Layer" class="shp1" d="M22.5 12.2C22.7 12.2 23 12.4 23.2 12.1C23.2 11.8 23.1 11.7 23 11.6C23 11.6 22.9 11.6 22.8 11.6C22.7 11.3 22.5 11.6 22.4 11.7C22.4 12.1 22.2 12.1 22.2 12.4C22.3 12.5 22.3 12.2 22.5 12.2Z" />
					<path id="Layer" class="shp1" d="M12.1 18.2C12.2 17.9 11.9 17.5 11.7 17.6C11.6 17.4 11.4 17.3 11.3 17.2C11.1 17.5 10.9 17.8 10.8 18.1C10.9 18.2 11.1 18.4 11.2 18.5C11.6 18.6 12 18.6 12.1 18.2Z" />
					<path id="Layer" class="shp1" d="M7.8 29.1C7.9 28.9 8.1 28.9 8.1 28.7C8.1 28.5 7.9 28.5 8 28.3C8.1 28.2 8.2 28.5 8.3 28.4C8.3 28.1 8 27.9 7.7 27.8C7.7 27.7 7.6 27.6 7.5 27.5C7.5 27.7 7.4 27.9 7.4 28.1C7.6 28.3 7.7 28.5 7.8 28.7C7.7 28.9 7.7 29 7.8 29.1Z" />
					<path id="Layer" fill-rule="evenodd" class="shp1" d="M37.4 18.1C37.5 18.6 36.8 18.4 37 19.1C36.7 19.4 36.4 18.9 36.3 18.6C36.1 18.6 36 18.6 35.9 18.5C35.9 18.3 35.9 18.1 35.8 18.1C35.8 18.2 35.7 18.2 35.7 18.3C35.7 18.4 35.8 18.5 35.8 18.6C35.7 18.8 35.7 19 35.6 19C35.4 19 35.2 18.4 35 18.8C35 18.9 35 19 35 19C35 19.1 35.1 19 35.2 19C35.4 19.1 35.4 19.5 35.6 19.6C35.6 20.1 35.3 20 35.2 19.8C34.9 19.9 34.8 20.3 34.5 20.2C34.3 20.5 34 20.7 33.9 21.1C33.8 21 33.8 20.8 33.7 20.6C33.5 20.6 33.4 20.8 33.3 20.9C33.2 20.9 33.3 20.7 33.2 20.7C33.1 20.7 33.1 21 32.9 20.9C32.7 21.1 32.6 21.3 32.5 21.6C32.5 21.8 32.6 21.8 32.7 21.9C32.6 22.2 32.7 22.3 32.7 22.5C32.6 22.5 32.6 22.4 32.5 22.4C32.5 22.5 32.4 22.5 32.4 22.6C32.4 22.8 32.5 22.9 32.5 23.1C32.4 23.2 32.3 23 32.2 23.1C32.2 23.3 32.2 23.5 32.2 23.6C32.1 23.7 31.9 23.7 32 24.1C31.8 24.2 31.8 24.5 31.6 24.5C31.7 23.9 31.5 23.5 31.5 22.8C31.5 22.3 31.7 22.2 31.7 21.8C31.9 21.7 32.1 21.6 32.2 21.4C32.3 21.3 32.3 21.2 32.4 21.1C32.6 20.9 32.8 20.8 33 20.5C33 20.3 33.1 20.2 33.1 20C33 19.8 32.8 20.1 32.8 20.2C32.8 20.3 32.8 20.4 32.8 20.5C32.6 20.4 32.5 21.1 32.3 20.7C32.3 20.6 32.4 20.6 32.4 20.4C32.2 20.3 32 20.2 31.8 20.3C31.6 20.6 31.5 21 31.3 21.1C31.3 21.3 31.6 21.2 31.5 21.4C31.4 21.6 31.2 21.4 31.1 21.4C30.9 21.4 30.8 21.7 30.7 21.5C30.7 21.4 30.8 21.5 30.8 21.3C30.7 21 30.3 21.1 30.3 21.4C30.2 21.4 30 21.4 29.9 21.5C29.3 21 28.8 21.8 28.6 22.4C28.4 22.3 28.4 22.6 28.3 22.8C28.1 23 28 22.9 28 23.1C28 23.4 28.2 23.4 28.3 23.6C28.4 23.6 28.5 23.4 28.6 23.4C28.8 23.4 28.9 23.7 29 23.9C29.1 23.8 29 23.4 29.2 23.4C29.2 23.5 29.3 23.8 29.3 23.9C29.3 24 29.3 24.1 29.3 24.2C29.3 24.3 29.4 24.4 29.4 24.5C29.4 24.6 29.4 24.7 29.4 24.8C29.5 25 29.6 25.1 29.6 25.3C29.5 25.5 29.4 25.2 29.3 25.2C29 25.5 29.4 25.9 29.4 26.2C29.2 26.2 29.2 26.2 29.1 26.4C28.9 26.1 29.1 25.5 29.1 25.1C29.1 24.7 29.1 24.4 29 24.1C28.7 24.3 28.9 24.8 28.8 25.3C28.7 25.5 28.5 25.8 28.4 26C28.3 26.2 28.4 26.4 28.2 26.5C28.1 27 27.9 27.3 27.6 27.5C27.5 27.5 27.5 27.3 27.4 27.3C27.2 27.3 27.2 27.5 27.1 27.8C27 27.9 26.9 27.9 26.9 28C26.8 28.1 26.8 28.2 26.8 28.2C26.7 28.3 26.6 28.3 26.6 28.4C26.6 28.7 26.9 28.8 26.9 29.1C26.9 29.4 26.8 29.5 26.9 29.8C26.8 29.9 26.5 30.1 26.4 29.9C26.6 29.4 26.4 28.9 26.2 28.7C26.2 28.6 26.3 28.5 26.3 28.4C26.1 28 25.8 28.4 25.6 28.5C25.6 28.2 25.7 28.1 25.7 27.9C25.4 27.7 25.3 28.4 25 28.4C25 29.2 25.5 28.6 25.8 28.9C25.8 29.1 25.7 29.1 25.6 29.1C25.6 29.3 25.3 29.4 25.3 29.6C25.3 29.8 25.4 29.8 25.4 29.9C25.4 30 25.4 30.1 25.4 30.2C25.4 30.5 25.7 30.7 25.7 30.9C25.7 31.2 25.5 31.7 25.4 31.9C25.2 32.2 25.1 32.4 25 32.8C24.9 32.9 24.9 33.2 24.7 33.3C24.4 33.1 24.3 33.7 24 33.8C23.8 33.9 23.7 33.9 23.6 34.1C23.5 34.1 23.5 33.8 23.4 33.7C23.2 33.7 22.9 34.1 22.9 34.4C22.9 34.5 22.9 34.8 23 34.9C23.1 35.1 23.2 35.1 23.3 35.3C23.5 35.6 23.5 36.3 23.4 36.7C23.3 36.8 23.2 36.9 23 37.1C22.9 37.2 22.8 37.6 22.7 37.6C22.6 37.6 22.5 37.3 22.6 37.1C22.5 36.9 22.4 36.9 22.3 36.7C22.2 36.6 22 36 21.8 36.5C21.8 36.5 21.79 36.51 21.79 36.51C21.8 36.44 21.8 36.37 21.8 36.3C21.8 36.1 21.7 36 21.7 35.9C21.7 35.8 21.7 35.7 21.7 35.7C21.7 35.6 21.6 35.4 21.6 35.2C21.5 35.2 21.5 35.4 21.4 35.5C21.3 35.5 21.2 35.6 21.1 35.5C21 35.2 21.1 34.9 21.1 34.6C21.1 34.4 20.8 34.3 20.7 34C20.6 33.9 20.7 33.7 20.6 33.6C20.4 33.8 20.2 33.9 20 34C19.6 34.7 19.1 35.2 18.7 35.8C18.7 36 18.7 36.2 18.7 36.4C18.7 36.6 18.5 36.8 18.5 37.1C18.5 37.2 18.5 37.2 18.5 37.3C18.4 37.4 18.3 37.7 18.2 37.7C18 37.7 18 37.4 17.9 37.1C17.8 36.6 17.5 36 17.4 35.5C17.4 35.3 17.4 35 17.3 34.8C17.2 34.5 17.4 33.8 17.2 33.7C17.1 33.8 17.1 34.1 17 34.1C16.8 34.1 16.7 33.8 16.6 33.7C16.6 33.6 16.7 33.6 16.7 33.4C16.6 33.4 16.4 33.2 16.3 33.2C16.3 33.1 16.3 32.8 16.2 32.7C16 32.7 15.8 32.7 15.7 32.9C15.4 32.7 14.9 32.7 14.6 32.5C14.6 32.4 14.6 32.4 14.6 32.3C14.4 32.3 14.4 32.5 14.2 32.5C13.9 32.3 13.8 32.1 13.6 31.7C13.5 31.5 13.3 30.9 13.2 31.4C13.1 32 13.8 32.6 13.8 33C14 33 14.1 33 14.2 33C14.4 32.9 14.4 32.6 14.6 32.5C14.7 32.6 14.7 32.9 14.8 33C14.9 33.1 15.1 33.1 15.2 33.3C15.2 33.6 15 33.8 14.9 34C14.9 34.1 14.9 34.2 14.9 34.3C14.7 34.7 14.5 34.8 14.1 35.1C14 35.2 14 35.3 13.9 35.4C13.8 35.5 13.7 35.5 13.6 35.6C13.5 35.7 13.4 36 13.3 36C13.2 36 13.1 35.9 13 35.9C12.8 35.9 12.7 36.2 12.6 36.2C12.4 36.2 12.4 36 12.3 35.7L12.2 35.5C12.2 35.4 12.2 35.3 12.2 35.2C12.2 35 12.1 35 12 34.8C12 34.7 12 34.5 11.9 34.4C11.8 34.2 11.7 34.1 11.6 33.9C11.7 33.4 11.6 33.2 11.4 33C11.4 32.5 11.1 32.3 11 32C11 31.8 11 31.5 10.9 31.5C10.8 31.4 10.8 31.7 10.8 31.8C10.7 31.7 10.7 31.3 10.5 31.4C10.6 31.9 10.8 32.2 10.9 32.8C10.9 32.9 11 33 11 33.1C11 33.2 11 33.3 11 33.3C11 33.5 11.2 33.6 11.2 33.8C11.3 34.1 11.2 34.3 11.3 34.6C11.4 34.8 11.4 34.9 11.5 35.1C11.6 35.5 11.9 35.6 12 36C12.1 36 12.2 36.2 12.2 36.5C12.3 36.6 12.3 36.6 12.4 36.7C12.9 36.8 13.3 36.3 13.7 36.5C13.7 36.8 13.6 37 13.5 37.3C13.3 38 13.1 38.7 12.7 39.1C12.6 39.2 12.5 39.3 12.4 39.4C12.3 39.5 12.2 39.7 12.1 39.9C12 40.2 11.6 40.7 11.6 41.3C11.6 41.5 11.7 41.6 11.7 41.8C11.7 41.9 11.7 42.1 11.7 42.2C11.7 42.5 11.8 42.5 11.8 42.8C11.9 43.1 11.9 43.5 11.9 43.7C11.9 44.2 11.6 44.3 11.4 44.5C11.3 44.6 11.2 44.8 11.1 44.9C8.6 40.8 7.1 36 7.1 30.9C7.1 30.7 7.1 30.4 7.1 30.2C7.4 30.3 7.6 30.3 7.7 30.7C7.8 30.7 7.9 30.8 8 30.8C8.1 31.1 8.5 31.2 8.4 30.6C8.6 30 9.1 30.5 9.4 30.7C9.8 30.6 10.1 31 10.4 30.6C10.7 31 10.9 30.4 11.2 30.4C11.2 30.2 11.1 30.2 11.1 30.1C11.2 29.9 11.4 29.4 11.2 29.1C11 29.2 11 29.3 10.8 29.3C10.8 29.3 10.7 29.1 10.6 29.1C10.5 29.1 10.4 29.3 10.3 29.3C10.2 29.2 10.2 29.1 10 29.1C9.9 29 9.8 28.8 9.7 28.6C9.7 28.5 9.7 28.3 9.7 28.1C9.8 28 10.2 28.1 10.2 27.7C10.4 27.8 10.5 27.7 10.6 27.5C10.9 27.4 11.1 27.3 11.4 27.5C11.6 27.6 11.7 27.8 11.9 27.7C12.1 27.7 12.3 27.8 12.4 27.5C12.3 27.3 12.2 27.2 12 27C11.9 26.8 11.6 26.7 11.6 26.5C11.5 26.1 11.8 26.2 11.8 25.8C11.6 25.7 11.4 26.1 11.1 26C11.2 26.3 11.5 26.1 11.5 26.4C11.3 26.5 11.2 26.6 11 26.7C10.9 26.5 10.8 26.3 10.9 26.1C10.8 26.1 10.7 26 10.6 26C10.4 26 10.3 26.2 10.3 26.5C10.2 26.5 10.1 26.4 10 26.3C9.9 26.5 10.1 26.8 10.2 26.9C10.1 27.1 10 27 10 27.2C10 27.4 10.1 27.3 10.1 27.5C9.9 27.6 9.8 27.8 9.7 27.9C9.7 27.8 9.6 27.8 9.6 27.7C9.5 27.8 9.4 27.9 9.3 28.1C9.3 28.5 9.4 29.2 9.2 29.3C9.1 29.3 9.1 29.2 9 29.1C9.1 28.4 8.7 28.3 8.6 27.6C8.6 27.3 8.4 27.2 8.3 27.1C8.2 27 8.1 26.7 8 26.7C8 26.6 7.9 26.4 7.9 26.3C8.1 25.2 8.4 24.1 8.7 23C8.8 22.9 8.9 22.8 9 22.7C9 22.6 9 22.3 9 22.1C9 22 9.1 21.8 9.1 21.7L9.2 21.7C9.3 21.8 9.3 22 9.4 22.1C9.6 21.9 9.5 21.6 9.4 21.3C9.5 21.1 9.7 21.1 9.8 21C10 21.2 10.3 21.1 10.4 20.8C10.3 20.4 10.2 20.6 10 20.7C9.9 20.7 9.7 20.8 9.6 20.8C10.1 19.8 10.6 18.8 11.1 17.9C11.2 18.1 11.4 18.2 11.5 18.4C11.5 18.6 11.3 18.8 11.5 19C11.6 19.1 11.6 19 11.7 19.1C11.8 19.2 12 19.6 12.1 19.1C12.1 19 11.9 19.1 11.9 19C11.8 18.9 11.8 18.7 11.8 18.6C12 18.6 12.2 19 12.4 18.9C12.4 18.8 12.3 18.7 12.3 18.6C12.3 18.4 12.5 18.3 12.6 18.1C12.8 18 12.9 18.2 13 18.3C13.2 18.3 13 18 13 17.8C13 17.5 13 17.3 12.9 17.1C13.2 17.1 13.4 17.3 13.5 17.5C13.5 17.7 13.2 17.6 13.2 17.8C13.3 17.9 13.4 18 13.5 18C13.6 18 13.7 17.7 13.8 17.6C13.8 17.6 13.8 17.5 13.9 17.5C14 17.5 14 17.3 14.1 17.3C14.2 17.3 14.3 17.3 14.4 17.3C14.5 17.3 14.6 17.1 14.7 17.1C14.7 17.3 14.6 17.5 14.5 17.6C14.7 17.8 14.9 17.4 15 17.3C15.2 17.5 15.3 17.2 15.5 17.1C15.5 17.2 15.4 17.3 15.5 17.4C15.6 17.4 15.7 17.3 15.8 17.2C15.8 16.8 15.4 16.9 15.4 16.5C15.5 16.4 15.6 16.5 15.7 16.5C15.7 16.6 15.7 16.8 15.8 16.8C16.4 16.7 16.7 17.2 17.1 17.5C17.1 17.4 17.2 17.3 17.2 17.2C17.1 17 16.9 16.9 16.8 16.7C16.9 16.4 16.8 16.2 16.8 16C17 15.9 17.2 15.6 17.2 15.1C17.3 15 17.4 15.2 17.5 15.1C17.5 15 17.3 15.1 17.3 14.9C17.3 14.8 17.4 14.8 17.5 14.8C17.6 14.8 17.6 15 17.6 15.1C17.9 15.2 17.9 15.7 17.7 15.9C17.7 16 17.8 16 17.8 16.2C17.9 16.6 17.7 17.2 17.9 17.4C17.9 17.8 17.7 18 17.5 18.2C17.4 18.1 17.1 18 17 18.2C17.1 18.7 18 18.6 18 17.9C18 17.8 18.2 17.8 18.2 17.7C18.2 17.5 18.1 17.5 18.1 17.3C18.2 17.3 18.4 17.3 18.5 17.4C18.5 17.7 18.5 18.2 18.7 18C18.7 17.7 18.7 17.6 18.7 17.4C18.6 16.8 18.1 17.1 17.9 17C18 16.6 17.9 16.1 17.8 15.9C17.8 15.7 17.9 15.5 18.1 15.5C18.2 15.6 18.2 15.8 18.2 15.9C18.3 16.1 18.5 16.2 18.7 16.1C18.7 15.7 18.2 15.9 18.3 15.5C18.4 15.4 18.4 15.6 18.5 15.6C18.6 15.5 18.5 15.4 18.6 15.3C18.9 15.4 19 15.7 19.3 15.8C19.3 16 19.2 16 19.2 16.1C19.2 16.4 19.5 16.3 19.5 15.9C19.5 15.5 19.1 15.4 19 15.2C18.9 14.4 19.7 14.7 20 14.6C20.1 14.7 19.9 14.8 20 14.9C20.1 14.9 20.2 14.7 20.2 14.6C20.1 14.4 20 14.4 20 14.2C20.1 14 20 13.7 20.1 13.6C20.4 13.7 20.8 13.2 21.1 13.5C21.1 13.5 21 13.3 21.1 13.2C21.4 13.2 21.7 13.2 21.8 13.4C22 13.1 22.1 13.5 22.3 13.6C22.4 13.4 22.2 13.4 22.2 13.2C22.4 13 22.7 13.5 22.8 13.3C22.7 13.1 22.4 13.2 22.4 12.9C22.5 12.8 22.7 12.6 22.8 12.5C22.9 12.4 23.2 12.7 23.3 12.6C23.3 12.7 23.2 12.7 23.2 12.8C23.3 12.9 23.4 13 23.5 13C23.5 13.1 23.5 13.2 23.5 13.3C23.6 13.3 23.6 13.1 23.7 13C23.8 13 24 12.9 24.1 12.9C24.3 12.9 24.4 13.3 24.6 13.4C24.5 13.6 24.5 13.7 24.5 13.9C24.3 13.9 24.2 14.1 24.1 14.2C24 14.3 24 14.3 23.9 14.3C23.8 14.4 23.7 14.6 23.6 14.7C23.5 14.8 23.5 14.8 23.4 14.8C23.2 14.9 23 15.2 23.1 15.5C23.2 15.5 23.2 15.3 23.3 15.2C23.6 15.2 23.7 15 23.9 14.9C23.9 14.8 23.9 14.6 24 14.6C24.2 14.8 24.4 14.8 24.5 14.9C24.7 14.6 25.1 14.9 25.4 15C25.5 15.1 25.4 15.1 25.4 15.2C25.6 15.3 25.9 15.3 26.1 15.5C26 15.3 26.1 14.9 26.2 14.8C26.3 14.8 26.4 14.9 26.5 15C26.8 14.7 27.1 15 27.1 15.5C27 15.5 27 15.6 26.9 15.6C26.9 15.8 27 15.7 27 15.8C27.1 15.9 27.2 16.3 27.3 16.3C27.5 16.3 27.5 16 27.6 15.8C27.8 15.9 27.8 16 27.9 16C28 16 28.1 15.7 28.2 15.7C28.3 15.6 28.3 15.8 28.5 15.9C28.6 15.8 28.4 15.7 28.5 15.6C28.6 15.7 28.7 15.9 28.8 15.9C28.9 15.7 28.8 15.4 28.7 15.3C28.8 15.1 28.9 15.2 29 15.2C29.3 15.2 29.7 15.1 29.9 15.3C29.8 15.5 29.7 15.6 29.7 15.8C29.9 15.8 30 15.5 30.1 15.3C30.3 15.3 30.4 15.4 30.5 15.5C30.5 15.6 30.4 15.6 30.4 15.7C30.5 15.9 30.6 15.8 30.7 15.8C30.9 16.2 31.4 16.2 31.6 15.9C31.8 16 32.2 16 32.3 16.3C32.3 16.4 32.3 16.5 32.3 16.6C32.4 16.7 32.4 17 32.5 17.1C32.6 17 32.6 16.8 32.6 16.7C32.7 16.5 33 16.5 33.1 16.7C33.3 16.6 33.4 16.9 33.6 16.7C33.7 16.8 33.9 17.4 34.1 17C34.1 16.8 34 16.6 34.1 16.5C34.3 16.4 34.3 16.7 34.5 16.7C34.7 16.7 34.8 16.6 35 16.6C35.2 16.7 35.3 16.9 35.4 17C35.5 17.1 35.5 17 35.6 17C35.9 17.4 36.3 17.5 36.6 17.9C36.6 18 36.6 18.5 36.8 18.3C36.9 18.2 36.8 18.2 36.8 18C36.9 18 37.3 18 37.3 18.3C37.3 18.3 37.4 18.2 37.4 18.1ZM21.72 37.15C21.82 37.4 21.99 37.42 21.9 37.8C22 38.1 22.2 38.1 22.4 38.3C22.5 38.5 22.5 38.6 22.5 38.8C22.5 39.1 22.7 39.2 22.7 39.6C22.5 39.9 22.5 39.4 22.3 39.2L22.2 39.1C22.1 38.9 22.1 38.6 22 38.5C22 38 21.8 37.8 21.7 37.5C21.7 37.37 21.71 37.25 21.72 37.15ZM21.7 37.1C21.7 37.1 21.7 36.63 21.79 36.51C21.77 36.72 21.74 36.91 21.72 37.15C21.71 37.13 21.71 37.12 21.7 37.1ZM27 15.4C26.9 15.2 26.6 15.2 26.6 15.5C26.7 15.6 27 15.5 27 15.4Z" />
					<path id="Layer" class="shp1" d="M26.6 15.5C26.7 15.6 26.9 15.6 27 15.4C26.9 15.2 26.6 15.2 26.6 15.5Z" />
					<path id="Layer" class="shp1" d="M21.4 13C21.5 13 21.6 13 21.6 12.8C21.5 12.7 21.3 12.8 21.4 13Z" />
					<path id="Layer" class="shp1" d="M14.8 15.1C14.9 14.5 15.5 14.4 15.8 14C15.9 13.9 16 13.8 16.1 13.7C16.3 13.6 16.9 13.5 16.9 13.2C16.9 12.7 16.4 12.9 16.3 13.2C16.1 13.2 16 13.4 15.9 13.4C15.8 13.4 15.8 13.3 15.7 13.3C15.6 13.3 15.5 13.5 15.4 13.5C15.3 13.6 15.2 13.6 15.1 13.7C15 13.8 15 14 14.9 14.1C14.8 14.2 14.7 14.3 14.6 14.4C14.5 14.5 14.4 14.5 14.3 14.7C14.4 14.9 14.7 14.9 14.8 15.1Z" />
					<path id="Layer" fill-rule="evenodd" class="shp1" d="M28.5 14C28.5 13.3 28.9 13.2 29.1 13.6C29.2 13.6 29.2 13.5 29.2 13.4C29.5 13.5 29.8 13.3 29.9 13.6C29.9 14.2 29.6 13.9 29.5 14.2C29.4 14.2 29.3 14.2 29.3 14.1C29.2 14.2 29 14.1 28.9 14.1C28.8 14.2 28.5 14.2 28.5 14ZM29.3 13.6C29.3 13.7 29.4 13.8 29.4 13.8C29.5 13.8 29.4 13.6 29.3 13.6Z" />
					<path id="Layer" class="shp1" d="M29.4 13.7C29.4 13.8 29.4 13.8 29.5 13.9C29.5 13.8 29.4 13.6 29.4 13.7Z" />
					<path id="Layer" class="shp1" d="M28.3 13.5C28.1 13.3 28 13.6 28.1 13.9C28.3 13.9 28.3 13.8 28.3 13.5Z" />
					<path id="Layer" class="shp1" d="M30.9 13.8C30.6 13.8 30.4 13.4 30 13.6C30.1 14.2 30.8 14.6 30.9 13.8Z" />
					<path id="Layer" class="shp1" d="M19.2 13.9C18.9 13.4 19.1 14.5 19.2 13.9Z" />
					<path id="Layer" class="shp1" d="M24.2 14.3C24.2 14.4 24.4 14.4 24.4 14.3C24.4 14.1 24.2 14.1 24.2 14.3Z" />
					<path id="Layer" class="shp1" d="M28.9 14.9C29.1 15 29.4 14.9 29.6 14.9C29.6 14.4 29.3 14.7 29.1 14.7C29.1 14.6 29.2 14.6 29.2 14.5C29 14.2 28.9 14.6 28.9 14.9Z" />
					<path id="Layer" class="shp1" d="M28.2 14.6L28.3 14.6C28.5 14.2 28 14.3 28.2 14.6Z" />
					<path id="Layer" class="shp1" d="M14.3 16.1C14.2 16.3 14.2 16 14 16C14 16.1 14 16.1 14 16.2C14.1 16.2 14.2 16.5 14.4 16.5C14.5 16.5 14.6 16.4 14.8 16.4C14.7 16 14.4 15.7 14.6 15.2C14.4 15 14 15.1 14 15.4C14 15.6 13.9 15.7 13.8 15.9C14 16 14.3 15.7 14.3 16.1Z" />
					<path id="Layer" class="shp1" d="M36.2 15.9C36 16 35.8 15.7 35.7 15.8C35.6 15.8 35.5 16.1 35.5 16.3C35.7 16.2 36.3 16.4 36.2 15.9Z" />
					<path id="Layer" class="shp1" d="M34 16.6C33.9 16.5 33.8 16.5 33.8 16.7C33.8 16.8 34 16.8 34 16.6Z" />
					<path id="Layer" class="shp1" d="M13.4 17.4C13.6 17.4 13.7 16.7 13.4 16.8C13.2 16.9 13.3 17.4 13.4 17.4Z" />
					<path id="Layer" class="shp1" d="M32.9 21.7C33 21.7 33.1 21.6 33.1 21.4C33 21.2 32.8 21.6 32.9 21.7Z" />
					<path id="Layer" class="shp1" d="M9 21.8C9 21.7 9 21.7 9 21.6C9 21.7 8.9 21.8 9 21.8C8.9 21.9 8.9 21.9 9 21.8L9 21.8Z" />
					<path id="Layer" class="shp1" d="M28.8 27.7C28.9 28.1 29.1 27.7 29.2 27.5C29.3 27.5 29.4 27.7 29.5 27.7C29.6 27.4 29.8 27.4 29.9 27L30 27C30.1 26.7 30.4 26.8 30.4 26.5C30.2 26.2 29.9 26.8 29.8 27C29.5 27 29.4 26.7 29.2 26.5C29.1 26.6 29.1 26.7 29.2 26.9C29.2 27.1 28.8 27.3 28.8 27.7Z" />
					<path id="Layer" class="shp1" d="M28.7 28.9C28.7 29 28.7 29.1 28.7 29.2C28.6 29.2 28.6 29.2 28.5 29.2C28.4 29.3 28.4 29.6 28.2 29.7C28.1 29.8 27.9 29.6 27.8 29.7C27.6 29.8 27.6 30 27.5 30C27.5 30.4 27.2 30.3 27.2 30.6C27.3 30.8 27.3 31.2 27.5 31.1C27.7 31.1 27.7 30.5 27.5 30.3C27.7 30.3 28.1 29.9 28.1 30.3C28.1 30.3 28.1 30.3 28.1 30.4C28 30.3 27.9 30.3 27.8 30.3C27.7 30.4 27.7 30.7 27.8 30.8C27.9 30.7 28 30.6 28.1 30.5C28.1 30.5 28.1 30.6 28.2 30.6C28.4 30.5 28.4 30.1 28.6 30.1C28.7 30.1 28.7 30.2 28.8 30.2C28.9 30.2 28.9 30 29 30.1C29.1 29.5 29.4 28.8 29.3 28C29.1 28.1 29 28.1 28.9 28.4C28.9 28.5 28.9 28.6 28.9 28.7C28.9 28.7 28.8 28.8 28.7 28.9Z" />
					<path id="Layer" class="shp1" d="M7.6 29.6C7.7 29.4 7.6 29.2 7.6 28.9C7.5 28.8 7.4 28.8 7.2 28.9C7.2 29 7.2 29.1 7.2 29.2C7.4 29.4 7.5 29.6 7.6 29.6Z" />
					<path id="Layer" class="shp1" d="M9.6 29.9C9.5 29.7 9.2 29.8 9 29.8L9 29.9C9.1 30.1 9.5 30.2 9.6 29.9Z" />
					<path id="Layer" class="shp1" d="M26.5 30.4C26.5 30.5 26.6 30.6 26.6 30.6C26.8 30.3 26.6 30.1 26.5 30.4Z" />
					<path id="Layer" class="shp1" d="M26 36.2C26.1 36.3 26.2 36.5 26.3 36.4C26.3 35.8 25.9 36 25.8 35.6C25.9 35.4 26 35.3 26 35C26 34.5 25.5 34.5 25.6 35.2C25.6 35.4 25.5 35.3 25.5 35.5C25.4 36 25.8 36.1 26 36.2Z" />
					<path id="Layer" class="shp1" d="M25.1 37.7C25.3 37.6 25.4 37.2 25.5 37L25.5 36.8C25.6 36.7 25.6 36.5 25.8 36.5C25.8 36.1 25.4 36.4 25.5 36.7C25.4 36.7 25.4 36.8 25.4 36.8C25.3 37.2 25 37.3 25.1 37.7Z" />
					<path id="Layer" class="shp1" d="M14.1 36.6C14.2 36.7 14.4 36.8 14.4 36.5C14.4 36.3 14.1 36.4 14.1 36.6Z" />
					<path id="Layer" class="shp1" d="M14.1 36.7C14.1 36.5 13.9 36.6 14 36.8C14 36.8 14.1 36.8 14.1 36.7Z" />
					<path id="Layer" class="shp1" d="M26 36.7C25.9 36.6 25.7 36.8 25.8 37.1C25.9 37.1 25.9 37 25.9 37C25.9 37.1 25.9 37.3 25.9 37.4C26 37.4 26 37.2 26 37C26 36.9 25.9 37 25.9 37C26 36.9 26 36.8 26 36.7Z" />
					<path id="Layer" class="shp1" d="M26.2 36.8C26.2 36.9 26.3 37 26.3 37.1C26.4 37.1 26.4 37 26.4 36.9C26.4 36.8 26.3 36.7 26.2 36.8Z" />
					<path id="Layer" class="shp1" d="M26.3 37.3C26.3 37.2 26.3 37.1 26.2 37.1C26.2 37.2 26.1 37.2 26.1 37.3C26.2 37.3 26.3 37.4 26.3 37.3Z" />
					<path id="Layer" class="shp1" d="M18.6 37.7C18.6 38 18.7 38.4 18.8 38.5C18.9 38.5 19 38.2 19 38C19 37.7 18.8 37.5 18.8 37.2C18.7 37.2 18.6 37.5 18.6 37.7Z" />
					<path id="Layer" class="shp1" d="M26.2 37.6L26.1 37.5C26 37.6 25.9 37.7 25.8 37.9C25.8 38 25.8 38.1 25.9 38.1C26 38 26 37.9 26.1 37.9C26.2 38 26.1 38.2 26.2 38.3C26.3 38.4 26.4 38.4 26.5 38.5C26.6 38.3 26.8 37.6 26.6 37.4C26.4 37.2 26.4 37.6 26.2 37.6Z" />
					<path id="Layer" class="shp1" d="M24.5 38.7C24.4 39.1 24.1 39.2 23.9 39.5C23.8 39.5 23.8 39.3 23.8 39.4C23.7 39.5 23.6 39.8 23.6 39.9C23.6 40 23.7 40.4 23.8 40.6C23.9 40.9 24.1 40.8 24.3 40.8C24.5 40.8 24.6 41 24.7 41C24.9 41 25 40.6 25 40.3C25.1 40 25.2 39.8 25.4 39.6C25.3 39.4 25.2 39.2 25.2 38.9C25.3 38.7 25.4 38.6 25.5 38.4C25.5 38.3 25.4 38.4 25.3 38.4C25.3 38.3 25.3 38.2 25.2 38.1C24.8 37.8 24.9 38.8 24.5 38.7Z" />
					<path id="Layer" class="shp1" d="M23.1 40.9C23.3 40.8 23.4 40.4 23.1 40.3C23 40.3 23 40.4 23 40.4C22.9 40.3 22.7 40.2 22.7 40C22.7 39.9 22.7 39.8 22.6 39.7C22.5 39.5 22.4 39.5 22.3 39.4C22.2 39.3 22.2 39.2 22.2 39.1C22.1 39 22.1 39 22 38.9C21.9 38.8 21.9 38.6 21.8 38.5C21.7 38.5 21.4 38.2 21.4 38.5C21.4 38.7 21.6 39 21.7 39.2C21.9 39.5 22 39.7 22 39.9C22.2 40.1 22.2 40.5 22.4 40.8C22.6 41.4 23.3 42.1 23.1 40.9Z" />
					<path id="Layer" class="shp1" d="M26.8 39.3C26.8 39.5 26.6 40.2 26.8 40.2C26.9 40.1 26.9 39.9 27 39.8L27 39.5C27 39.5 26.9 39.3 26.8 39.3Z" />
					<path id="Layer" class="shp1" d="M26 40C25.9 40 25.7 40.3 25.6 40.1C25.7 39.5 26.5 40.3 26.4 39.4C26.3 39.4 26.2 39.6 26.1 39.6C26 39.6 25.9 39.5 25.8 39.5C25.3 39.5 25.4 40.2 25.3 40.7C25.3 40.8 25.4 40.9 25.4 41C25.3 41.2 25.3 41.5 25.4 41.6C25.8 41.5 25.4 40.9 25.6 40.7C25.7 40.9 25.6 41.2 25.8 41.2C26.1 41.1 25.9 40.6 25.8 40.4C25.8 40.2 26 40.3 26.1 40.3C26.2 40.2 26.1 40 26 40Z" />
					<path id="Layer" class="shp1" d="M28.8 42.2C29 42.2 29.2 42.7 29.4 42.5C29.5 42.4 29.5 42.3 29.5 42.1C30 41.7 30.1 43.1 30.6 42.7C30.6 42.5 30.5 42.4 30.5 42.3C30.3 42.2 30.2 41.8 30.1 41.6C30 41.2 29.7 41.1 29.5 40.8C29.2 40.9 29.2 40.6 29 40.5C28.9 40.5 28.8 40.5 28.8 40.4C28.7 40.3 28.6 40.2 28.5 40.2C28.3 40.2 28.3 40.5 28.1 40.6C28 40.4 27.9 40.3 27.9 40C27.7 39.8 27.4 39.7 27.4 40.1C27.4 40.3 27.5 40.4 27.6 40.6C27.6 40.8 27.6 41.1 27.7 41.1C27.8 41.1 27.8 41 27.8 40.9C27.9 41.1 28.1 41.2 28.3 41.1C28.4 41.3 28.5 41.4 28.6 41.7C28.6 41.9 28.4 41.9 28.4 42.2C28.6 42.4 28.6 42.2 28.8 42.2Z" />
					<path id="Layer" class="shp1" d="M26.2 40.5C26.3 40.7 26.4 40.5 26.6 40.6C26.6 40.5 26.6 40.5 26.6 40.4C26.5 40.2 26.2 40.1 26.2 40.5Z" />
					<path id="Layer" class="shp1" d="M30.4 41.3C30.4 41.3 30.4 41.4 30.4 41.5C30.6 41.8 31 41.6 31.1 41.2C31.2 41.2 31.2 41.3 31.2 41.2C31.2 41 30.9 40.2 30.7 40.6C30.8 40.8 30.9 40.8 31 41.1C30.8 41.2 30.6 41.5 30.4 41.3Z" />
					<path id="Layer" class="shp1" d="M26.8 41C27 41.1 27.3 41.1 27.4 40.8C27.3 40.5 26.7 40.6 26.8 41Z" />
					<path id="Layer" class="shp1" d="M14 42C14.1 42 14.1 42 14.1 42C14.1 41.9 14.1 41.6 14.1 41.5C13.8 41.4 13.9 41.8 14 42Z" />
					<path id="Layer" class="shp1" d="M24.7 42.4L24.8 42.3C24.9 42.5 25.4 42.4 25.4 42.2C25.2 42 24.9 42.1 24.8 42.3C24.8 42.1 24.7 42.2 24.6 42.1C24.5 42 24.6 41.8 24.5 41.8C24.2 41.7 24 41.6 23.7 41.7C23.5 41.5 23.1 41.6 23 41.8C23 42 23.1 42 23.2 42C23.3 42 23.4 42.2 23.4 42.2C23.5 42.2 23.6 42.2 23.7 42.2C23.8 42.2 23.9 42.3 24 42.4C24.3 42.4 24.5 42.2 24.7 42.4Z" />
					<path id="Layer" class="shp1" d="M26.1 42.2C26 42.1 25.6 42 25.5 42.2C25.6 42.4 26 42.6 26.1 42.2Z" />
					<path id="Layer" class="shp1" d="M26.1 42.7C26.1 42.7 26.2 42.8 26.1 42.7C26.4 42.7 26.6 42.6 26.7 42.4C26.6 41.9 26.1 42.3 26.1 42.7Z" />
					<path id="Layer" class="shp1" d="M25.3 42.7C25.4 42.7 25.5 42.9 25.6 42.9L25.6 42.9L25.6 42.7C25.6 42.5 25.3 42.2 25.3 42.7Z" />
					<path id="Layer" class="shp1" d="M31 46.9C30.9 46.7 30.7 46.6 30.7 46.2C30.6 46.1 30.5 46 30.5 45.7C30.2 45.4 29.8 45 29.8 44.2C29.8 44 29.6 44 29.5 43.8C29.6 43.4 29.4 43.1 29.3 42.9C28.9 43.2 29.3 44.8 28.8 44.8C28.7 44.8 28.7 44.6 28.6 44.5L28.5 44.5C28.3 44.4 28.2 44.1 28.1 44C28.2 43.8 28.3 43.7 28.4 43.4C28.3 43.1 28.2 43.4 28 43.4C27.8 43.4 27.7 42.8 27.5 43.2C27.5 43.3 27.7 43.3 27.6 43.4C27.2 43.2 27.2 43.9 27 44.2C26.8 44.1 26.8 43.8 26.6 43.8C26.4 43.9 26.3 44.4 26.2 44.6L26 44.6C25.9 44.7 25.9 44.9 25.9 45.1C25.8 45.4 25.5 45.7 25.2 45.8C25.1 45.8 25 45.8 25 45.8C24.8 45.9 24.7 46.3 24.5 46.2C24.4 46.6 24.4 47 24.6 47.3C24.4 47.5 24.6 47.8 24.6 48C24.7 48.4 24.8 49 24.8 49.4C24.8 49.6 24.7 49.7 24.7 49.9C24.8 50 25 50.1 25.2 50.1C25.4 49.8 25.6 49.5 25.9 49.6C26 49.6 26 49.7 26.1 49.7C26.3 49.7 26.4 49.4 26.5 49.3C26.6 49.2 26.7 49.3 26.8 49.2C27 49.1 27.2 49 27.4 48.9C27.6 49 27.7 49 27.8 49.2C28 49.4 28 49.8 28.2 50C28.3 50 28.3 49.5 28.5 49.6C28.6 49.8 28.4 49.8 28.4 50C28.5 50 28.6 50.2 28.8 50.3C28.9 50.5 29 50.9 29.1 51.1C29.1 51.1 29.2 51.1 29.3 51.2C29.4 51.3 29.4 51.4 29.4 51.4C29.5 51.4 29.6 51.2 29.7 51.1C29.8 51.2 29.8 51.3 30 51.3C30.1 51 30.2 51 30.5 50.9C30.7 50.8 30.7 50.5 30.7 50.1C30.8 49.6 31.1 49.3 31.1 48.9C31.2 48.2 31.1 47.4 31.2 46.8C31.1 46.7 31.1 46.9 31 46.9Z" />
					<path id="Layer" class="shp1" d="M12.4 43.6C12.5 43.7 12.7 43.7 12.8 43.8C12.9 43.3 12.4 43.2 12.4 43.6Z" />
					<path id="Layer" class="shp1" d="M13.4 43.4C13.3 43.5 13.3 43.8 13.2 43.9C13.2 44 13.2 44.1 13.2 44.2C13.1 44.4 12.8 44.4 12.7 44.6C12.6 45 12.7 45.3 12.7 45.7C12.7 45.9 12.5 46 12.5 46.1C12.5 46.2 12.6 46.3 12.6 46.4C12.6 46.6 12.6 46.9 12.6 47.1C12.7 47.2 12.9 47.4 13 47.3C13.2 47.2 13.2 46.6 13.3 46.2C13.3 46 13.4 45.8 13.4 45.7C13.4 45.6 13.4 45.5 13.4 45.4C13.4 45.2 13.5 45 13.5 44.9C13.5 44.8 13.5 44.7 13.5 44.6C13.5 44.4 13.7 44.3 13.7 44.1C13.7 43.9 13.5 43.3 13.4 43.4Z" />
					<path id="Layer" class="shp1" d="M33.5 46C33.4 45.9 33 45.4 33.1 45.8C33 46 33.4 46.4 33.5 46Z" />
					<path id="Layer" class="shp1" d="M35.1 50.8C35 50.8 35 50.6 35 50.4L34.9 50.4C34.8 50 34.6 49.8 34.5 49.6C34.4 49.5 34.4 49.6 34.4 49.7C34.3 50.1 34.9 50.3 34.8 50.9C34.8 51 34.7 51 34.7 51.2C34.8 51.4 34.9 51.6 35 51.8C35.2 51.8 35.2 51.5 35.2 51.3C35.3 51.1 35.5 51 35.5 50.7C35.3 50.5 35.2 50.8 35.1 50.8Z" />
					<path id="Layer" class="shp1" d="M30.3 51.4C30.2 51.2 30.1 51.5 30.2 51.6C30.3 51.5 30.3 51.5 30.3 51.4Z" />
					<path id="Layer" class="shp1" d="M29.5 51.5L29.6 51.6C29.6 51.5 29.6 51.4 29.6 51.4C29.5 51.3 29.5 51.4 29.5 51.5Z" />
					<path id="Layer" class="shp1" d="M34.4 51.6L34.4 51.6C34.2 52.6 33.5 52.5 33.3 53.5C33.4 53.6 33.5 53.5 33.6 53.6C33.6 53.7 33.5 53.7 33.5 53.8C33.6 53.8 33.5 53.9 33.6 53.9C33.6 53.9 33.6 53.7 33.7 53.7C34.2 53.8 34.1 52.9 34.4 52.7C34.4 52.3 34.6 52.2 34.7 51.9C34.6 51.9 34.5 51.8 34.4 51.6Z" />
					<path id="Layer" class="shp1" d="M30 51.9C29.9 51.9 29.7 51.6 29.7 51.8C29.7 52 29.8 52 29.9 52.1C29.8 52.4 30 52.7 30.1 52.8C30.2 52.7 30.2 52.4 30.4 52.4C30.4 52.2 30.5 51.8 30.4 51.7C30.1 51.7 30.1 51.8 30 51.9Z" />
					<path id="Layer" class="shp1" d="M33.2 55.1L33.4 55.1C33.5 54.7 33.1 54.6 33.2 55.1Z" />
					<path id="Layer" class="shp1" d="M48.4 11.4C48.4 11.5 48.3 11.5 48.2 11.6C48.3 11.8 48.4 11.7 48.5 11.6C48.8 11.6 48.9 11.7 49 11.9C49.1 11.9 49.2 11.9 49.3 11.8C49.2 11.4 49 11 48.7 11.1C48.6 10.8 48.3 10.8 48.1 11C48.1 11.4 48.3 11.3 48.4 11.4Z" />
					<path id="Layer" class="shp1" d="M49.5 11.7C49.5 11.8 49.4 11.8 49.4 11.9C49.5 12.3 49.9 12 50 11.9C50 11.7 49.8 11.6 49.9 11.4C49.6 11.5 49.4 11 49.3 11.6C49.4 11.6 49.5 11.6 49.5 11.7Z" />
					<path id="Layer" class="shp1" d="M47.3 11.8C47.4 11.8 47.5 11.7 47.5 11.5C47.4 11.2 47 11.3 46.9 11.6C47 11.8 47.3 11.5 47.3 11.8Z" />
					<path id="Layer" class="shp1" d="M46.8 12C46.9 12.3 47.4 12.3 47.3 11.9C47.3 11.6 46.9 11.8 46.8 12C46.7 11.8 46.5 11.7 46.5 12C46.6 12.1 46.8 12.1 46.8 12Z" />
					<path id="Layer" class="shp1" d="M45.5 13C45.6 13 45.6 13.2 45.7 13.2C45.8 13.2 45.7 13 45.8 12.9L45.9 12.9C45.9 12.8 45.9 12.6 46 12.6C46.1 12.6 46 12.8 46.1 12.8C46.2 12.7 46.4 12.5 46.3 12.1C46.2 12 46 12.1 45.9 12.1C45.7 12.2 45.6 12.3 45.5 12.5C45.3 12.7 45.1 12.7 45.2 13C45.4 13.2 45.4 13 45.5 13Z" />
					<path id="Layer" class="shp1" d="M49.6 12.6C49.7 12.9 50 13 50.2 12.9C50.3 13.1 50.4 13.3 50.4 13.6C50.6 13.7 50.7 13.9 50.9 13.8C51 13.8 51 13.9 51.1 14C51.4 13.9 51.7 14 51.9 13.7C52 13.7 52 14 52.1 14C52.3 14 52.4 13.8 52.6 13.8C52.4 13.6 52.2 13.4 52 13.2C51.7 13.2 51.4 13.4 51 13.4C50.9 13.2 50.7 13.3 50.7 13.1C50.7 13 50.8 13.1 50.8 13C50.8 12.6 50.5 12.7 50.3 12.7C50.1 12.5 49.7 12.1 49.6 12.6Z" />
					<path id="Layer" class="shp1" d="M46.6 12.6C46.6 12.8 46.8 12.7 46.8 12.6C46.8 12.4 46.6 12.4 46.6 12.6Z" />
					<path id="Layer" class="shp1" d="M47 13.4C46.9 13.7 46.6 13.5 46.6 13.9C47 14.2 47.2 13.6 47.5 13.6C47.6 13.6 47.6 13.6 47.7 13.6C47.9 13.5 48.1 13.1 47.8 13C47.7 13 47.7 13.1 47.6 13.1C47.4 13.1 47.4 12.6 47.3 12.6C47.2 12.5 47 12.6 47 12.8C47 13.1 47.2 13.1 47.2 13.4C46.9 13.3 46.6 13 46.3 12.9C46.2 13.2 46.1 13.4 46 13.6C46.4 13.8 46.9 13.4 47 13.4Z" />
					<path id="Layer" class="shp1" d="M48.7 13.5C48.8 13.5 49 13.2 49.1 13.3C49.1 13.4 49 13.3 48.9 13.4C48.9 13.5 48.9 13.5 48.9 13.6C49 13.5 49.1 13.5 49.3 13.5C49.6 13.4 49.5 12.2 49.2 12.6C49.1 12.6 48.9 12.6 48.9 12.7C48.9 12.8 49 12.9 48.9 12.9C48.8 12.8 48.8 12.6 48.7 12.5C48.7 12.6 48.6 12.6 48.6 12.7C48.6 12.8 48.7 12.8 48.7 13C48.7 13.1 48.6 13.3 48.7 13.5Z" />
					<path id="Layer" class="shp1" d="M45.9 13.3C46 13.4 46.1 13.2 46.1 13.1C46.1 12.8 45.8 13.1 45.9 13.3Z" />
					<path id="Layer" class="shp1" d="M50.4 14.8C50.5 14.5 50.6 14.5 50.7 14.2C50.6 14 50.2 14.1 50.1 14C50.1 13.8 50.2 13.8 50.2 13.6C50.2 13.2 49.8 13.2 49.7 13.5C49.7 13.8 49.9 13.8 50 14C49.9 14.4 49.7 15 50 15.3C50.1 15.2 50.2 15.1 50.2 14.9C50.2 14.8 50.3 14.8 50.4 14.8Z" />
					<path id="Layer" class="shp1" d="M45.1 15.5C45.3 15.9 45.5 15.5 45.6 15.3C45.8 14.8 46.2 14.5 46.5 14.1C46.4 13.9 46.2 13.9 46.1 13.8C46 13.8 46 14 45.9 14C45.7 13.8 45.2 13.5 45 13.9C45.2 14.4 44.8 14.8 44.8 15.3C44.8 15.5 44.9 15.5 45.1 15.5Z" />
					<path id="Layer" class="shp1" d="M48.1 14.6C48 14.5 47.8 14.5 47.7 14.6C47.7 14.9 47.9 15.3 47.7 15.5C47.6 15.2 47.6 14.8 47.3 14.6C47.3 14.8 47.2 15.3 47 15.1C47 14.9 47.1 15 47.1 14.8C47 14.7 46.8 14.8 46.7 14.9C46.7 14.8 46.7 14.7 46.6 14.7C46.3 14.7 45.9 14.9 45.8 15.5C45.9 15.6 45.9 15.7 46 15.7C46.1 15.7 46.1 15.5 46.2 15.6C46.2 15.9 45.9 15.7 45.8 15.9C46 16.5 46.7 15.7 46.9 16.2C46.6 16.5 46.1 15.9 46 16.5C46.1 16.8 46.4 16.8 46.7 16.7C46.7 16.8 46.7 17 46.8 17.1C47 17.1 47.1 16.9 47.4 16.9C47.6 16.7 47.9 16.3 48.1 16.6C48.1 16.7 48 16.6 48 16.7C48.1 17 48.4 16.7 48.6 16.8C48.6 16.6 48.5 16.7 48.5 16.5C48.5 16.4 48.7 16.4 48.8 16.4C48.8 16.3 48.9 16.2 48.8 16.1C48.6 16 48.4 15.9 48.3 15.7C48.3 15.4 48.3 15 48.1 14.6C48.2 14.6 48.4 14.6 48.4 14.4C48.4 14 48 14 48 14.3C48 14.5 48.1 14.5 48.1 14.6Z" />
					<path id="Layer" class="shp1" d="M49.4 14.6C49.4 14.5 49.5 14.5 49.5 14.3C49.4 14.2 49.3 14.3 49.2 14.3C49.1 14 48.8 14.2 48.8 14.5C48.8 14.7 48.9 14.6 48.9 14.8C48.9 14.8 48.9 14.9 48.8 14.9C48.7 14.9 48.7 14.7 48.6 14.7C48.5 14.8 48.5 14.8 48.4 15C48.5 15.2 48.6 15.2 48.8 15.2C48.9 15.4 48.9 15.6 49.1 15.6C49.2 15.6 49.3 15.4 49.4 15.4C49.4 15.3 49.5 15.2 49.5 15C49.6 14.8 49.5 14.8 49.4 14.6Z" />
					<path id="Layer" class="shp1" d="M52.3 14.5C52.1 14 51.7 14.3 51.5 14.7C51.5 14.7 51.6 14.8 51.6 14.9C51.6 15 51.5 14.8 51.5 15C51.6 15.1 51.9 15.5 51.6 15.6C51.6 15.5 51.6 15.4 51.6 15.3C51.2 15.1 51.5 14.5 51.7 14.2C51.4 13.8 50.8 14.8 50.9 15.3C51 15.6 51.2 15.4 51.3 15.6C51.3 15.8 51.1 15.7 51 15.7C51 15.9 51.1 16 51.2 16.1C51.7 16 52.3 16.3 52.8 16.2C52.8 16 52.7 16 52.8 15.8C53 15.9 53.1 16.3 53.2 16.5C53.2 16.6 53.2 16.7 53.2 16.8C53.5 16.6 53.7 16.8 53.9 17.1C53.8 17.4 53.7 17.7 53.6 17.9C53.6 18 53.6 18.1 53.6 18.2C53.4 18.3 53.2 18.3 53 18.3C53 18.3 53 18.4 52.9 18.4C52.9 19.2 53.3 18.6 53.6 18.7C53.7 18.8 53.8 19 53.9 19C54 19.4 54.4 19.4 54.5 19.8C54.6 19.8 54.8 19.9 54.9 19.7C54.8 19.4 54.5 19.4 54.5 19C54.8 18.7 55.3 20.2 55.2 19.2C55.2 19.2 55.3 19.2 55.3 19.1C55.2 18.7 54.9 18.6 54.8 18.3C54.8 18.1 54.8 18 54.7 17.8C54.7 17.8 54.7 17.7 54.8 17.7C54.9 17.7 55.1 17.8 55.1 17.9C55.1 18 55 18 55 18.1C55.1 18.2 55.2 18.3 55.3 18.3C55.3 18.1 55.4 18 55.5 17.9C55.5 17.8 55.5 17.7 55.6 17.6C55.7 17.6 55.7 17.6 55.7 17.6L55.7 17.5C55.6 17.4 55.6 17.3 55.5 17.2C55.4 17.1 55.3 17.1 55.2 17C55.1 16.9 55.2 16.8 55.1 16.8C55 16.8 55 16.8 54.9 16.8C54.7 16.6 54.5 16.4 54.4 16.1C54.5 15.9 54.7 16.2 54.8 16L54.8 16C54.7 15.9 54.7 15.8 54.6 15.7L54.5 15.7C54.5 15.6 54.4 15.5 54.4 15.4C54.4 15.4 54.4 15.4 54.4 15.3C54.3 15.3 54.3 15.2 54.2 15.2C54.1 15.2 54.1 15.4 54 15.3C54 15.1 54.1 15.2 54.1 15.1C54 14.8 53.8 14.9 53.7 15C53.5 14.9 53.4 14.7 53.4 14.4L53 14.4C52.9 14.5 52.9 14.7 52.9 14.7C52.8 14.7 52.7 14.5 52.6 14.5C52.6 14.6 52.6 14.8 52.5 14.7C52.2 14.9 52.3 14.8 52.3 14.5C52.4 14.6 52.5 14.7 52.5 14.7C52.6 14.5 52.9 14.6 53 14.5C52.9 14.2 52.5 14.1 52.2 14.3C52.2 14.3 52.3 14.4 52.3 14.5Z" />
					<path id="Layer" fill-rule="evenodd" class="shp1" d="M57.9 40.3L58 40.3C57.1 42.8 55.8 45.2 54.2 47.3C54.2 47.1 54.1 46.8 54.1 46.5C54.1 46 54.1 45.2 53.9 45C53.8 44.8 53.7 44.9 53.6 44.8C53.5 44.7 53.3 44.4 53.2 44.1C53.1 44 53.1 43.9 53.1 43.8C53.1 43.7 53 43.6 53 43.5C52.9 43.4 52.9 43.2 52.9 43.1C52.8 42.7 52.7 42.4 52.5 42C52.4 42 52.4 41.9 52.3 41.9C52.2 41.7 52.4 41.4 52.4 41.1C52.4 40.8 52.3 40.6 52.3 40.4C52.3 40.1 52.6 40 52.7 39.7C52.8 39.5 52.8 39.3 52.9 39.2C53 38.5 52.8 38.1 52.6 37.9C52.5 38 52.5 38.1 52.5 38.2C52.3 38.4 52.1 37.9 51.9 37.8C51.8 37.8 51.7 37.9 51.6 37.7C51.6 37.5 51.7 37.4 51.7 37.2C51.6 37 51.4 36.9 51.3 36.7C51.2 36.7 51.2 36.8 51.1 36.8C50.9 36.5 50.6 36.5 50.4 36.2L50.4 35.9C50.4 35.9 50.3 35.9 50.3 35.8C49.9 35.9 49.5 35.8 49.2 35.7C49.1 35.7 49 35.4 48.8 35.3C48.6 35.2 48.2 35.2 48.2 34.8C48.2 34.6 48.3 34.4 48.3 34.3C48.3 34.2 48.2 34 48.2 33.9C48 33.6 47.8 33.3 47.6 33C47.5 32.8 47.4 32.6 47.3 32.4C47.2 32.3 47.2 32.3 47.1 32.2C46.9 31.9 47 31.3 46.7 31.1C46.6 31.5 46.8 31.8 46.9 32.1C47 32.4 47.2 32.6 47.3 32.9C47.4 33 47.4 33.1 47.4 33.2C47.5 33.5 47.8 33.7 47.6 34C47.4 33.8 47.3 33.5 47.1 33.3C47.1 32.8 46.8 32.8 46.7 32.5C46.7 32.4 46.8 32.4 46.8 32.3C46.6 31.8 46.4 31.3 46.3 30.8C46.3 30.5 46 30.5 45.8 30.4C45.7 29.5 45.2 29.2 45.1 28.3C45 27.6 45.3 26.9 45.2 26.2C45.2 25.8 45 25.5 44.8 25.3C44.7 25.2 44.5 25.2 44.5 24.9C45.1 24.8 45.3 25.5 45.5 26.1C45.7 26 45.6 25.7 45.6 25.6C45.5 25.1 45 24.8 44.7 24.6C44.7 24.4 44.8 24.5 44.8 24.3C44.5 24.1 44.4 23.8 44.2 23.5C44.2 23.2 44.1 23 43.9 22.9C43.8 22.3 43.5 22.2 43.3 21.8C43.2 21.8 43.1 21.8 43 21.9C42.8 21.7 42.6 21.5 42.5 21.3C42.3 21.4 42.2 21.2 42 21.2C41.8 21.2 41.5 21.2 41.4 21.1C41.2 21 41.1 20.7 41 21C41 21.2 41.1 21.2 41.1 21.3C40.9 21.5 40.7 21.5 40.5 21.7C40.5 21.6 40.5 21.3 40.5 21.2C40.5 20.8 40.8 21 40.9 20.8C41 20.5 40.7 20.6 40.6 20.7C40.4 20.9 40.3 21.4 40.1 21.5C40.1 21.7 40.2 21.7 40.2 21.8C40.1 22 39.9 22.4 39.7 22.2C39.7 23 39.1 23.5 38.6 23.4C38.6 23.2 38.7 23.1 38.9 23.1C39 22.9 39.1 22.6 39.3 22.6C39.3 22.4 39.4 22.2 39.5 22L39.5 21.9C39.3 21.8 39.3 22.1 39.2 22.1C39.2 22.1 39.2 21.9 39.1 21.9C38.9 21.9 38.9 22 38.7 22C38.7 21.9 38.7 21.8 38.7 21.6C38.5 21.5 38.2 21.6 38.2 21.3C38.3 21.2 38.4 21.2 38.4 21.1C38.4 20.9 38.1 21 38.1 20.8C38.1 20.5 38.3 20.3 38.4 20.1C38.6 20 38.8 20 38.9 19.7C38.8 19.5 38.8 19.3 38.7 19.2C38.5 19.2 38.3 19.6 38 19.4C37.9 19.4 37.9 19.2 37.8 19.1C37.8 19 37.7 19.2 37.7 19C37.7 18.8 37.9 18.8 38 18.7C38.1 18.6 38.2 18.4 38.3 18.3C38.5 18.4 38.5 18.7 38.7 18.7C38.8 18.7 38.8 18.5 38.8 18.5C38.9 18.5 39.1 18.6 39.1 18.4C39.1 18 38.8 18.2 38.7 18.2C38.6 18.2 38.5 18 38.4 17.9C38.3 17.8 38.1 17.8 38.1 17.6C38.1 17.3 38.4 17.2 38.5 17.1C38.7 16.9 38.7 16.7 38.8 16.6C39 16.7 39 16.4 39.2 16.5C39.2 16.4 39.2 16.3 39.3 16.2C39.6 16.2 39.9 15.9 40 16.2C40.2 16 40.4 16.2 40.6 16.1C40.7 16.1 40.7 16.3 40.8 16.4C40.9 16.4 40.9 16.2 41 16.2C41.2 16.4 41.5 16.2 41.7 16.3C41.8 16.3 41.8 16.4 41.9 16.4C42.1 16.5 42.3 16.4 42.4 16.6C42.8 16.5 43 17 43.3 17.1C43.4 17 43.3 16.9 43.3 16.8C43.4 16.6 43.6 16.5 43.7 16.7C43.9 16.6 44.2 16.3 44.4 16.3C44.3 16.8 43.8 16.6 43.8 17.1C44 17.2 44.1 16.8 44.2 16.7C44.4 16.9 44.6 16.6 44.7 16.5C44.8 16.2 44.8 16.1 44.9 16.1C45.1 16.1 45.1 16.7 45.2 16.7C45.3 16.7 45.2 16.4 45.3 16.4C45.4 16.4 45.4 16.7 45.5 16.7C45.6 16.7 45.5 16.5 45.6 16.5C45.8 16.6 46.1 16.6 46.3 16.7C46.5 16.8 46.5 17 46.7 17C46.8 17 46.9 16.9 47 17.1C47 17.2 46.9 17.1 46.9 17.3C47.1 17.4 47.3 17.5 47.5 17.4C47.6 17.4 47.6 17.3 47.7 17.3C47.8 17.3 47.9 17.5 48 17.6C48 17.7 48 17.8 48 17.9C48.3 17.9 48.2 17.6 48.1 17.4C48.2 17.4 48.4 17.3 48.4 17.2C48.3 17 48.1 17.6 48 17.2C48.1 17 48.3 17 48.4 16.9C48.5 16.9 48.5 17.1 48.6 17.2C48.9 17.2 49.3 17.6 49.6 17.3C49.7 17.3 49.7 17.5 49.8 17.5C49.9 17.5 49.8 17.2 49.9 17.2L50 17.2C50.1 17.3 50 17.6 50.1 17.7C50.3 17.8 50.2 17.4 50.2 17.3C50.2 17.1 50.3 17.1 50.4 17C50.4 16.9 50.3 16.9 50.3 16.8C50.3 16.7 50.4 16.7 50.4 16.6C50.3 16.5 50.1 16.5 50 16.4C50 16.2 49.9 16 49.9 15.9C50 15.5 50.2 15.5 50.4 15.5C50.5 15.7 50.6 16 50.7 16.2C50.7 16.3 50.6 16.3 50.6 16.5C50.6 16.7 50.7 16.6 50.8 16.7C50.9 16.9 50.8 17.2 51 17.2C51.1 16.9 51 16.8 51.1 16.7C51.1 16.7 51.3 16.8 51.3 17C51.3 17.2 51.1 17.7 51.4 17.7C51.5 17.7 51.7 17.4 51.6 17.1C51.6 17 51.7 17 51.7 16.9C51.7 16.7 51.6 16.7 51.6 16.5C51.7 16.4 51.8 16.5 51.9 16.6C52.1 16.6 52.1 16.7 52.2 16.9C52.2 17 52.1 17 52.1 17.1C52.1 17.3 52.2 17.4 52.2 17.6C52.1 17.8 52 18 51.9 18.1C51.8 18.1 51.8 17.9 51.7 17.9C51.6 17.9 51.7 18.1 51.6 18.1C51.5 18.1 51.5 18 51.4 18C51.2 18 51.3 18.4 51.2 18.5C51.1 18.5 50.9 18.2 50.7 18.4C50.7 18.6 50.9 18.6 51.1 18.7C51.1 19 51 19.1 50.9 19.2C50.8 19.1 50.7 19.2 50.6 19.4C50.4 19.3 50 18.9 49.8 19.2C50 19.4 50.4 19.4 50.6 19.6C50.6 19.8 50.3 19.8 50.2 20.1C50.1 20.2 49.9 20.7 49.9 21C49.9 21.1 50 21.3 50 21.4C50.1 21.4 50.2 21.4 50.2 21.4C50.3 21.6 50.3 21.8 50.4 22C50.5 22 50.5 21.9 50.6 21.9C51.1 22.1 51.4 22.7 52 22.7C52.2 22.8 52.1 23.2 52.1 23.5C52.2 23.8 52.3 24 52.5 24.2C52.9 24 52.6 23.2 52.6 22.7C52.8 22.6 53 22.5 53.1 22.1C53 21.9 53 21.6 52.9 21.4C52.8 21.3 52.7 21.2 52.7 21.1C52.7 20.9 52.8 20.8 52.9 20.6C52.7 20.3 52.8 20 52.7 19.7C52.7 19.3 53.1 19.4 53.2 19.6C53.6 19.4 53.7 19.8 53.9 20.1C54 20.2 54.1 20.2 54.2 20.3C54.1 20.6 54.2 20.9 54.1 21.1C54.2 21.2 54.2 21.1 54.3 21.1C54.4 21.2 54.4 21.3 54.5 21.3C54.8 21.4 54.7 20.7 54.9 20.4C55.1 20.5 55.1 20.9 55.2 21.2C55.4 21.5 55.4 22.1 55.6 22.5C55.7 22.7 56 22.5 56.1 22.8C56 23.2 55.6 22.7 55.6 23.2C55.8 23.4 55.8 22.9 56.1 23C56.2 23 56.3 23.2 56.4 23.3C56.5 23.8 56.2 23.7 56 23.9C55.8 24.1 55.8 24.2 55.7 24.4C55.4 24.3 55 24.5 54.7 24.3C54.5 24.7 54.2 25.1 54 25.5C53.9 25.6 53.7 25.6 53.7 25.9C53.9 25.9 54.1 25.5 54.3 25.2C54.4 25 54.7 24.6 55 24.9C55 25.3 54.7 25.1 54.7 25.3C54.8 25.5 54.9 25.3 54.9 25.4C55 25.8 55.2 26 55.5 26C55.6 25.9 55.5 25.7 55.6 25.6C55.7 25.6 55.8 25.8 55.9 25.8C55.9 26 55.8 26.1 55.6 26.1C55.6 26.3 55.4 26.4 55.2 26.4C55 26.5 55 26.8 54.9 26.9C54.8 26.9 54.8 26.7 54.7 26.6C54.7 26.5 54.8 26.4 54.8 26.3C54.7 26.3 54.6 26.4 54.5 26.5C54.4 26.5 54.4 26.5 54.3 26.5C54.2 26.6 54.1 26.8 54 27.1C54 27.3 54.2 27.2 54.2 27.4C54.1 27.7 53.9 27.6 53.8 27.6C53.6 27.7 53.4 27.9 53.3 28.2C53.3 28.1 53.3 28.2 53.2 28.2C53.1 28.4 53.1 28.8 53.2 29C53.2 29.2 53.1 29.4 53.1 29.7C52.9 29.8 52.8 30.1 52.7 30.2C52.6 30.4 52.3 30.6 52.3 31C52.3 31.2 52.5 31.9 52.5 32.2C52.5 32.7 52.4 32.9 52.2 32.6C52.2 32.6 52.1 32.4 52.1 32.3C52.1 32.2 52 32.1 52 32C52 31.7 52.1 31.4 51.9 31.3C51.8 31.2 51.8 31.4 51.7 31.4C51.6 31.3 51.6 31.2 51.5 31.1C51.2 31.3 51 30.9 50.8 31.1C50.9 31.2 51 31.3 51 31.5C50.7 31.6 50.4 31.3 50.1 31.4C50 31.5 50 31.6 49.9 31.7C49.7 31.8 49.6 31.7 49.5 31.9C49.5 32.1 49.7 32.3 49.7 32.6C49.7 32.9 49.6 33 49.6 33.4C49.6 33.9 49.8 34.5 50 34.7C50.3 34.6 50.5 34.7 50.6 34.6C50.7 34.5 50.7 34.3 50.8 34.1C51 33.7 51.2 33.7 51.5 33.6C51.6 33.8 51.4 34 51.4 34.2C51.4 34.2 51.4 34.3 51.4 34.4C51.3 34.6 51.1 34.7 51.2 35C51.1 35 51 35.1 51 35.2C51.3 35.6 51.6 34.9 51.9 35.3C51.9 35.3 52 35.4 52 35.5C52 35.8 51.9 36.2 51.9 36.5C51.9 36.8 52.1 37 52.2 37.2C52.5 37 52.8 37.1 52.9 37.4C53 37.2 53.2 37.2 53.2 36.7C53.5 36.5 53.7 36.3 53.9 36.2C54 36.5 53.6 37 53.9 37.2C54 37.1 53.9 36.8 53.9 36.7C54.1 36 54.5 37 55 36.8C55.1 36.8 55 36.6 55.1 36.6C55.3 36.7 55.4 36.9 55.6 37L55.6 37.3C55.7 37.5 56 37.4 56 37.8C56.1 37.8 56.2 38 56.3 38.1C56.4 38.2 56.6 38.1 56.7 38.1C57 38.1 57.1 38.5 57.3 38.7C57.3 39 57.4 39.1 57.4 39.3C57.4 39.6 57.1 39.7 57.1 40C57.1 40.1 57.2 40 57.2 40.1C57.4 40 57.4 39.8 57.7 39.8C57.7 39.9 57.8 40 57.9 40.3ZM54.8 26.3C54.9 26.3 54.9 26.3 55 26.3C55 26 54.8 26.1 54.8 26.3ZM57.7 40.1C57.6 40.3 57.3 40.1 57.3 40.4C57.5 40.5 57.8 40.3 57.7 40.1Z" />
					<path id="Layer" class="shp1" d="M54.8 26.3C54.9 26.3 55 26.3 55 26.3C55 26 54.8 26.1 54.8 26.3Z" />
					<path id="Layer" class="shp1" d="M57.3 40.4C57.4 40.6 57.7 40.3 57.7 40.1C57.7 40.3 57.3 40.1 57.3 40.4Z" />
					<path id="Layer" class="shp1" d="M49.2 16.7C49.4 16.7 49.7 17.1 49.9 16.8C49.8 16.3 49.2 16 49.2 16.7Z" />
					<path id="Layer" class="shp1" d="M53.3 17.1C53.2 16.8 53 17.1 52.9 17.3C52.9 17.5 52.9 17.7 53 17.7C53.1 17.5 53.3 17.4 53.3 17.1Z" />
					<path id="Layer" class="shp1" d="M52.4 18.8C52.1 18.6 51.9 18.3 51.5 18.3C51.4 18.5 51.4 18.9 51.4 19.1C51.5 19.2 51.6 19.3 51.7 19.3C51.8 19.2 51.8 19 51.9 19C52.1 19 52.4 19.5 52.4 18.8Z" />
					<path id="Layer" class="shp1" d="M51.8 19.6C51.8 20 52.1 19.8 52.2 19.5C52.1 19.3 51.9 19.4 51.8 19.6Z" />
					<path id="Layer" class="shp1" d="M56.5 23.9C56.4 24 56.4 24.1 56.3 24.2C56.3 24.8 55.9 24.8 56 25.4C56.2 25.5 56.5 25.2 56.6 25.5C56.6 25.6 56.5 25.7 56.5 25.8C56.6 25.9 56.7 25.6 56.7 25.5C56.8 25.5 56.8 25.8 56.9 25.8C57 25.7 57 25.6 57 25.5C57 25.4 56.9 25.3 56.8 25.2C56.8 25.1 56.9 25.1 56.9 25C56.7 24.8 56.4 24.8 56.4 24.5C56.4 24.2 56.6 24.2 56.5 23.9C56.5 24 56.5 23.9 56.5 23.9Z" />
					<path id="Layer" class="shp1" d="M55.6 24.7C55.5 24.6 55.3 24.4 55.2 24.6C55.2 24.9 55.5 25.1 55.6 24.7Z" />
					<path id="Layer" class="shp1" d="M55.2 25.9C55.3 25.9 55.5 26 55.5 25.8C55.4 25.8 55.3 25.7 55.2 25.6C55.1 25.6 55.1 25.8 55.2 25.9Z" />
					<path id="Layer" class="shp1" d="M52.9 33.7C52.8 33.6 52.8 33.5 52.7 33.5C52.6 33.5 52.6 33.5 52.5 33.5C52.3 33.4 52.2 33.1 51.9 33.3C51.9 33.3 51.9 33.3 51.9 33.4C52 33.7 52.3 33.7 52.5 33.9C52.6 34.1 52.7 34.1 52.8 34.4C53 34.3 53.3 34.6 53.3 34.2C53.2 33.9 53.1 33.8 52.9 33.7Z" />
					<path id="Layer" class="shp1" d="M53.4 34.7C53.4 34.9 53.5 34.7 53.6 34.8C53.7 34.9 53.7 35 53.8 35C53.9 35 53.9 34.8 54 34.8C54.1 34.9 54.4 35 54.4 34.7C54.2 34.2 53.5 33.9 53.4 34.7Z" />
					<path id="Layer" class="shp1" d="M54.5 34.7C54.5 35.2 54.9 35.2 54.9 34.7C54.8 34.5 54.5 34.5 54.5 34.7Z" />
					<path id="Layer" class="shp1" d="M51.2 12.7C51.3 12.8 51.4 12.9 51.5 12.9C51.5 12.8 51.6 12.8 51.6 12.8C51.4 12.6 51.2 12.5 51.1 12.3C51 12.4 50.8 12.4 50.8 12.6C50.9 12.9 51.1 12.8 51.2 12.7Z" />
				</g>
				<g id="Layer" style="opacity: 0.502">
					<path id="Layer" fill-rule="evenodd" class="shp1" d="M343.2 25.8C344 25.8 344.6 26 345.1 26.1C345.6 26.3 346 26.4 346.5 26.4C346.8 26.4 347.1 26.3 347.2 26.2L347.8 26.2L347.8 31.3L347.2 31.3C346.8 28.6 345.2 26.8 343.1 26.8C341.5 26.8 340.2 27.7 340.2 28.9C340.2 29.8 340.5 30.4 340.9 30.8C342.7 32.7 345.5 33 347.6 35.1C348.4 35.9 349 37 349 38.4C349 42.1 345.4 43.4 343.6 43.4C341.9 43.4 340.2 42.6 339.6 42.6C339.4 42.6 339.1 42.8 339 42.9L338.2 42.9L338.2 37.3L338.8 37.3C339.2 40.2 341.1 42.3 343.7 42.3C345.2 42.3 346.5 41.2 346.5 39.9C346.5 38.9 346.3 38.4 345.5 37.6C344.3 36.3 340.8 34.9 339.3 33.4C338.5 32.6 338.2 31.9 338.2 30.6C338.2 27.9 340.3 25.9 343.2 25.8ZM319.3 28.2C319.1 28.2 319 28.2 318.8 28.2C318.6 28.3 318.5 28.4 318.2 28.5L317.9 27.8L323.1 25.8L323.7 25.8L323.7 29.3C326.2 26.6 327.5 25.8 329.4 25.8C332.4 25.8 333.8 28.4 333.8 31.3L333.8 38.9C333.8 41.4 334.4 42.1 336.4 42.2L336.4 42.8L328 42.8L328 42.2C330.5 42.3 330.9 41.3 330.9 38.9L330.9 31.1C330.9 29.5 329.8 28 328.1 28C326.6 28 325.3 28.7 323.8 30.4L323.8 39C323.8 41.5 324.4 42.3 326.5 42.3L326.5 42.9L318.2 42.9L318.2 42.3C320.7 42.2 320.8 41.2 320.8 39L320.8 30.4C320.8 29.3 320.4 28.2 319.3 28.2ZM308.5 43.5C304.1 43.5 300.5 39.7 300.5 35.1C300.5 30.1 304.5 25.9 309.1 25.9C313.4 25.9 317.1 29.7 317.1 34.1C317.1 39.1 313.1 43.5 308.5 43.5ZM308.2 27.1C305.5 27.1 303.7 29.6 303.7 33.6C303.7 37.7 305.6 42.2 309.3 42.2C312.1 42.2 313.9 39.6 313.9 35.6C313.9 30.8 311.5 27.1 308.2 27.1ZM295.4 17.1C296.5 17.1 297.3 17.9 297.3 18.9C297.3 20 296.4 20.8 295.4 20.8C294.4 20.8 293.6 19.9 293.6 18.9C293.6 17.9 294.4 17 295.4 17.1ZM292.4 28.3C292.3 28.3 292.1 28.3 292 28.3C291.9 28.3 291.7 28.3 291.6 28.4L291.4 27.8L296.4 25.9L297 25.9L297 38.9C297 41.4 297.5 42.1 299.4 42.2L299.4 42.8L291.3 42.8L291.3 42.2C293.4 42.2 294 41.5 294 38.9L294 30.5C294 29.2 293.5 28.2 292.4 28.3ZM280.3 27.4L280.3 26.7C282.7 25.7 284.4 23.7 285.2 21L285.8 21L285.8 26.3L289.6 26.3L289.6 27.4L285.8 27.4L285.8 38.8C285.8 40.3 286.7 41.3 287.9 41.3C288.7 41.3 289.3 40.9 290.1 39.9L290.8 39.9C289.5 42.3 288.1 43.4 286.3 43.4C284.1 43.4 282.9 41.7 282.9 39L282.9 27.4L280.3 27.4ZM280.8 40.7C279 42.7 278 43.4 276.7 43.4C275.3 43.4 274.2 42.2 274.4 40.3C272.2 42.5 270.4 43.4 268.5 43.4C266.4 43.4 264.8 41.6 264.8 39.3C264.8 38.1 265.1 37.3 265.8 36.4C266.5 35.5 267.8 34.9 269.6 34C271.1 33.3 272.7 32.6 274.4 32L274.4 30.5C274.4 27.6 273.5 26.6 271.2 26.6C269.2 26.6 268.4 27.7 268.4 29.2C268.4 29.4 268.4 29.9 268.4 30.1C268.4 31 267.8 31.6 267 31.6C266.1 31.6 265.5 31 265.5 30.1C265.5 27.6 268.1 25.9 272 25.9C275.7 25.9 277.4 27.3 277.4 30.3L277.4 39.6C277.4 40.8 277.6 41.3 278.4 41.3C279.1 41.3 279.8 40.8 280.8 39.8L280.8 40.7ZM274.4 39.6L274.4 33C269.4 35.1 267.9 36.3 267.9 38.4C267.9 40.1 269.1 41.4 270.6 41.4C271.9 41.4 273.1 40.9 274.5 39.6L274.4 39.6ZM253.4 28.5C253.2 28.5 253 28.5 252.9 28.5C252.7 28.6 252.6 28.6 252.4 28.7L252.2 28.1L257.2 26L257.8 26L257.8 29.6L257.9 29.6C259.1 27.4 260.7 26 262.4 26C263.6 26 264.6 27 264.6 28.1C264.6 28.8 263.8 29.6 263 29.6C261.7 29.6 261.5 28.3 260.5 28.3C259.4 28.3 258.6 29.3 257.8 30.8L257.8 39C257.8 41.8 258.4 42.3 261 42.3L261 42.9L252.1 42.9L252.1 42.3C254.3 42.4 254.8 41.3 254.8 39.1L254.8 31.3C254.8 29 254.4 28.3 253.4 28.5ZM250.8 37.1C250 41.1 247.4 43.5 244.1 43.5C240.5 43.5 237 40.7 237 34.9C237 29.5 239.9 25.9 244.4 25.9C248.1 25.9 250.7 28.6 250.7 32.6L239.4 32.6C239.2 36.6 241.7 40.6 245.4 40.6C247.7 40.6 249.3 39.3 250.2 36.8L250.8 37.1ZM247.1 31.5C247 28.7 245.7 27.1 243.5 27.1C241.3 27.1 239.8 28.9 239.5 31.5L247.1 31.5ZM218.9 28.2C218.7 28.2 218.6 28.2 218.4 28.2C218.2 28.3 218.1 28.4 217.8 28.5L217.5 27.8L222.7 25.8L223.3 25.8L223.3 29.3C225.8 26.6 227.1 25.8 229 25.8C232 25.8 233.4 28.4 233.4 31.3L233.4 38.9C233.4 41.4 234 42.1 236 42.2L236 42.8L227.6 42.8L227.6 42.2C230.1 42.3 230.5 41.3 230.5 38.9L230.5 31.1C230.5 29.5 229.4 28 227.7 28C226.2 28 224.9 28.7 223.4 30.4L223.4 39C223.4 41.5 224 42.3 226.1 42.3L226.1 42.9L217.8 42.9L217.8 42.3C220.3 42.2 220.4 41.2 220.4 39L220.4 30.4C220.4 29.3 220 28.2 218.9 28.2ZM216.6 37.1C215.8 41.1 213.2 43.5 209.9 43.5C206.3 43.5 202.8 40.7 202.8 34.9C202.8 29.5 205.7 25.9 210.2 25.9C213.9 25.9 216.5 28.6 216.5 32.6L205.2 32.6C205 36.6 207.5 40.6 211.2 40.6C213.5 40.6 215.1 39.3 216 36.8L216.6 37.1ZM212.9 31.5C212.8 28.7 211.4 27.1 209.3 27.1C207.1 27.1 205.6 28.9 205.3 31.5L212.9 31.5ZM198.9 25.5L198.3 25.5C197.2 21.3 193 19 189.1 19C183.9 19 179.1 23 179.1 30.6C179.1 37.5 183.9 42.1 189.6 42.1C191.6 42.1 193.2 41.6 195.1 40.3L195.1 33.3C195.1 31.4 194.4 30.3 191.6 30.3L191.6 29.7L202.2 29.7L202.2 30.3C199.4 30.5 198.9 31.3 198.9 34.1L198.9 40.9C195.4 42.8 193.2 43.5 189.1 43.5C179.3 43.5 174.4 37 174.4 31.4C174.4 23.7 180.6 17.7 188.6 17.7C192.8 17.7 195.4 19.4 196.2 19.4C196.9 19.4 197.3 18.7 197.4 17.7L198.1 17.7L198.9 25.5Z" />
					<path id="Layer" fill-rule="evenodd" class="shp1" d="M166.7 37.1C165.9 41.1 163.3 43.5 160 43.5C156.4 43.5 152.9 40.7 152.9 34.9C152.9 29.5 155.8 25.9 160.3 25.9C164 25.9 166.6 28.6 166.6 32.6L155.3 32.6C155.1 36.6 157.6 40.6 161.3 40.6C163.6 40.6 165.2 39.3 166.1 36.8L166.7 37.1ZM163 31.5C162.9 28.7 161.6 27.1 159.4 27.1C157.2 27.1 155.7 28.9 155.4 31.5L163 31.5ZM141.5 28.5C141.3 28.5 141.1 28.5 141 28.5C140.8 28.6 140.7 28.6 140.5 28.7L140.3 28.1L145.3 26L145.9 26L145.9 29.6L146 29.6C147.2 27.4 148.8 26 150.5 26C151.7 26 152.7 27 152.7 28.1C152.7 28.8 151.9 29.6 151.1 29.6C149.8 29.6 149.6 28.3 148.6 28.3C147.5 28.3 146.7 29.3 145.9 30.8L145.9 39C145.9 41.8 146.5 42.3 149.1 42.3L149.1 42.9L140.2 42.9L140.2 42.3C142.4 42.4 142.9 41.3 142.9 39.1L142.9 31.3C142.9 29 142.6 28.3 141.5 28.5ZM120.6 26.9L120.6 26.3L126.6 26.3L126.6 38.1C126.6 39 126.8 39.7 127.3 40.3C127.8 40.8 128.4 41.2 129.3 41.2C130.7 41.2 132.3 40.4 133.6 39L133.6 29.1C133.6 27.6 132.9 26.8 130.8 26.9L130.8 26.3L136.6 26.3L136.6 39C136.6 40 137.1 41.1 138.2 41.1C138.6 41.1 138.8 41 139.4 40.8L139.4 41.5L134.4 43.4L133.7 43.4L133.7 39.9L133.6 39.9C131.6 42.3 129.8 43.5 128 43.5C125.3 43.5 123.7 41.3 123.7 38.7L123.7 29.4C123.7 27.5 123.1 26.8 120.6 26.9ZM109.8 27.4L109.8 26.7C112.2 25.7 113.9 23.7 114.7 21L115.3 21L115.3 26.3L119.1 26.3L119.1 27.4L115.3 27.4L115.3 38.8C115.3 40.3 116.2 41.3 117.4 41.3C118.2 41.3 118.8 40.9 119.6 39.9L120.3 39.9C119 42.3 117.6 43.4 115.8 43.4C113.6 43.4 112.4 41.7 112.4 39L112.4 27.4L109.8 27.4ZM90.2 26.9L90.2 26.3L96.2 26.3L96.2 38.1C96.2 39 96.4 39.7 96.9 40.3C97.4 40.8 98 41.2 98.9 41.2C100.3 41.2 101.9 40.4 103.2 39L103.2 29.1C103.2 27.6 102.5 26.8 100.4 26.9L100.4 26.3L106.2 26.3L106.2 39C106.2 40 106.7 41.1 107.8 41.1C108.2 41.1 108.4 41 109 40.8L109 41.5L104 43.4L103.3 43.4L103.3 39.9L103.2 39.9C101.2 42.3 99.4 43.5 97.6 43.5C94.9 43.5 93.3 41.3 93.3 38.7L93.3 29.4C93.3 27.5 92.7 26.8 90.2 26.9Z" />
					<path id="Layer" class="shp1" d="M92.6 18.1L73 18.1L73 18.7C75.3 18.7 76.5 19.4 76.5 21.6L76.5 39C76.5 41.1 75.8 42.2 73 42.1L73 42.7L83.9 42.7L83.9 42.1C81.2 42.1 80.3 41.3 80.3 39L80.3 30.4L84.6 30.4C87 30.4 87.9 31.5 87.8 33.9L88.4 33.9L88.4 25.5L87.8 25.5C88 28.3 86.7 29 84.2 29L80.3 29L80.3 19.2L86.6 19.2C90.2 19.2 91.8 20.4 92.1 23.3L92.8 23.3L92.6 18.1Z" />
					<path id="Layer" class="shp1" d="M372.9 18.4L372.9 17.7L382 17.7L382 18.4L381 18.4C380 18.4 379.2 18.8 378.7 19.7C378.4 20.1 378.3 21 378.3 22.4L378.3 32.9C378.3 35.5 378 37.5 377.5 38.9C377 40.3 376 41.5 374.5 42.6C373 43.6 371 44.1 368.4 44.1C365.6 44.1 363.4 43.6 362 42.6C360.5 41.6 359.5 40.3 358.9 38.7C358.5 37.6 358.3 35.5 358.3 32.3L358.3 22.2C358.3 20.6 358.1 19.6 357.6 19.1C357.2 18.6 356.5 18.4 355.5 18.4L354.5 18.4L354.5 17.7L365.6 17.7L365.6 18.4L364.6 18.4C363.5 18.4 362.8 18.7 362.3 19.4C362 19.9 361.8 20.8 361.8 22.3L361.8 33.5C361.8 34.5 361.9 35.6 362.1 36.9C362.3 38.2 362.6 39.2 363.1 39.9C363.6 40.6 364.3 41.2 365.2 41.7C366.1 42.2 367.2 42.4 368.5 42.4C370.2 42.4 371.7 42 373 41.3C374.3 40.6 375.2 39.6 375.7 38.5C376.2 37.4 376.4 35.4 376.4 32.7L376.4 22.2C376.4 20.6 376.2 19.6 375.9 19.2C375.4 18.6 374.7 18.4 373.7 18.4L372.9 18.4Z" />
					<path id="Layer" class="shp1" d="M386.5 29.2C388.5 26.7 390.5 25.5 392.3 25.5C393.2 25.5 394.1 25.7 394.8 26.2C395.5 26.7 396 27.5 396.4 28.5C396.7 29.3 396.8 30.4 396.8 32L396.8 39.4C396.8 40.5 396.9 41.3 397.1 41.6C397.2 41.9 397.5 42.2 397.8 42.3C398.1 42.5 398.7 42.6 399.5 42.6L399.5 43.3L390.9 43.3L390.9 42.6L391.3 42.6C392.1 42.6 392.7 42.5 393 42.2C393.3 42 393.5 41.6 393.7 41.1C393.8 40.9 393.8 40.3 393.8 39.3L393.8 32.2C393.8 30.6 393.6 29.5 393.2 28.7C392.8 28 392.1 27.6 391.1 27.6C389.6 27.6 388.1 28.4 386.6 30.1L386.6 39.3C386.6 40.5 386.7 41.2 386.8 41.5C387 41.9 387.2 42.1 387.5 42.3C387.8 42.5 388.4 42.6 389.4 42.6L389.4 43.3L380.8 43.3L380.8 42.6L381.2 42.6C382.1 42.6 382.7 42.4 383 41.9C383.3 41.5 383.5 40.6 383.5 39.3L383.5 33C383.5 30.9 383.5 29.6 383.4 29.2C383.3 28.7 383.2 28.4 383 28.3C382.8 28.1 382.5 28.1 382.2 28.1C381.8 28.1 381.4 28.2 380.9 28.4L380.6 27.7L385.8 25.6L386.6 25.6L386.6 29.2L386.5 29.2Z" />
					<path id="Layer" class="shp1" d="M405.7 25.5L405.7 39.5C405.7 40.6 405.8 41.3 405.9 41.7C406.1 42.1 406.3 42.3 406.6 42.5C406.9 42.7 407.5 42.8 408.3 42.8L408.3 43.5L399.8 43.5L399.8 42.8C400.6 42.8 401.2 42.7 401.5 42.6C401.8 42.4 402 42.2 402.2 41.8C402.4 41.4 402.5 40.7 402.5 39.6L402.5 32.9C402.5 31 402.4 29.8 402.3 29.2C402.2 28.8 402.1 28.5 401.9 28.4C401.7 28.2 401.5 28.2 401.1 28.2C400.7 28.2 400.3 28.3 399.8 28.5L399.5 27.8L404.7 25.7L405.7 25.7L405.7 25.5ZM404.1 16.4C404.6 16.4 405.1 16.6 405.5 17C405.9 17.4 406.1 17.8 406.1 18.4C406.1 18.9 405.9 19.4 405.5 19.8C405.1 20.2 404.7 20.4 404.1 20.4C403.6 20.4 403.1 20.2 402.7 19.8C402.3 19.4 402.1 19 402.1 18.4C402.1 17.9 402.3 17.4 402.7 17C403.1 16.6 403.6 16.4 404.1 16.4Z" />
					<path id="Layer" class="shp1" d="M408.3 26L416.5 26L416.5 26.7L416 26.7C415.5 26.7 415.1 26.8 414.9 27.1C414.6 27.3 414.5 27.7 414.5 28.1C414.5 28.5 414.6 29.1 414.9 29.7L418.9 39.3L423 29.3C423.3 28.6 423.4 28.1 423.4 27.7C423.4 27.5 423.3 27.4 423.2 27.3C423.1 27.1 422.9 27 422.7 26.9C422.5 26.8 422 26.8 421.4 26.8L421.4 26L427.1 26L427.1 26.7C426.4 26.8 426 26.9 425.7 27.1C425.3 27.5 424.9 28.1 424.5 29L418.3 43.9L417.5 43.9L411.3 29.2C411 28.5 410.8 28 410.5 27.7C410.2 27.4 409.9 27.2 409.5 26.9C409.3 26.8 408.9 26.7 408.2 26.6L408.2 26L408.3 26Z" />
					<path id="Layer" fill-rule="evenodd" class="shp1" d="M429.4 32.6C429.4 35.2 430 37.2 431.3 38.7C432.6 40.2 434.1 40.9 435.8 40.9C436.9 40.9 437.9 40.6 438.8 40C439.6 39.4 440.3 38.3 440.9 36.8L441.5 37.2C441.2 38.9 440.5 40.5 439.2 41.9C437.9 43.3 436.3 44 434.4 44C432.3 44 430.5 43.2 429 41.6C427.5 40 426.8 37.8 426.8 35C426.8 32 427.6 29.7 429.1 28C430.6 26.3 432.5 25.5 434.9 25.5C436.9 25.5 438.5 26.1 439.7 27.4C441 28.7 441.6 30.4 441.6 32.6L429.4 32.6ZM429.4 31.5L437.5 31.5C437.4 30.4 437.3 29.6 437.1 29.1C436.8 28.4 436.3 27.8 435.7 27.4C435.1 27 434.4 26.8 433.7 26.8C432.6 26.8 431.7 27.2 430.9 28C430 28.9 429.5 30 429.4 31.5Z" />
					<path id="Layer" class="shp1" d="M447.6 25.5L447.6 29.4C449.1 26.8 450.6 25.5 452.1 25.5C452.8 25.5 453.4 25.7 453.8 26.1C454.3 26.5 454.5 27 454.5 27.6C454.5 28.1 454.3 28.5 454 28.9C453.7 29.2 453.3 29.4 452.8 29.4C452.4 29.4 451.9 29.2 451.3 28.7C450.7 28.3 450.3 28 450.1 28C449.9 28 449.6 28.1 449.4 28.4C448.8 28.9 448.2 29.8 447.6 31L447.6 39.3C447.6 40.3 447.7 41 448 41.5C448.2 41.8 448.5 42.1 448.9 42.4C449.3 42.6 449.9 42.7 450.7 42.7L450.7 43.4L441.8 43.4L441.8 42.7C442.7 42.7 443.3 42.6 443.8 42.3C444.1 42.1 444.3 41.8 444.5 41.3C444.6 41.1 444.6 40.5 444.6 39.5L444.6 32.7C444.6 30.7 444.6 29.5 444.5 29.1C444.4 28.7 444.3 28.4 444 28.3C443.8 28.1 443.5 28 443.2 28C442.8 28 442.4 28.1 441.9 28.3L441.7 27.6L447 25.5L447.6 25.5Z" />
					<path id="Layer" class="shp1" d="M465.5 25.5L465.5 31.4L464.9 31.4C464.4 29.5 463.8 28.3 463 27.6C462.2 26.9 461.3 26.6 460.1 26.6C459.2 26.6 458.5 26.8 458 27.3C457.5 27.8 457.2 28.3 457.2 28.9C457.2 29.6 457.4 30.2 457.8 30.7C458.2 31.2 459 31.8 460.2 32.4L463 33.8C465.6 35.1 466.9 36.7 466.9 38.8C466.9 40.4 466.3 41.7 465.1 42.6C463.9 43.6 462.6 44.1 461.1 44.1C460 44.1 458.8 43.9 457.5 43.5C457.1 43.4 456.7 43.3 456.5 43.3C456.2 43.3 456 43.5 455.8 43.8L455 43.8L455 37.6L455.6 37.6C456 39.4 456.6 40.7 457.6 41.6C458.6 42.5 459.7 43 461 43C461.9 43 462.6 42.7 463.1 42.2C463.7 41.7 463.9 41.1 463.9 40.3C463.9 39.4 463.6 38.7 463 38.1C462.4 37.5 461.2 36.7 459.3 35.8C457.5 34.9 456.3 34.1 455.7 33.3C455.1 32.6 454.8 31.7 454.8 30.6C454.8 29.2 455.3 28 456.3 27C457.3 26 458.6 25.6 460.1 25.6C460.8 25.6 461.6 25.7 462.6 26C463.2 26.2 463.7 26.3 463.9 26.3C464.1 26.3 464.3 26.3 464.4 26.2C464.5 26.1 464.6 25.9 464.8 25.6L465.5 25.6L465.5 25.5Z" />
					<path id="Layer" class="shp1" d="M474.1 25.5L474.1 39.5C474.1 40.6 474.2 41.3 474.3 41.7C474.5 42.1 474.7 42.3 475 42.5C475.3 42.7 475.9 42.8 476.7 42.8L476.7 43.5L468.2 43.5L468.2 42.8C469 42.8 469.6 42.7 469.9 42.6C470.2 42.4 470.4 42.2 470.6 41.8C470.8 41.4 470.9 40.7 470.9 39.6L470.9 32.9C470.9 31 470.8 29.8 470.7 29.2C470.6 28.8 470.5 28.5 470.3 28.4C470.1 28.2 469.9 28.2 469.5 28.2C469.1 28.2 468.7 28.3 468.2 28.5L467.9 27.8L473.1 25.7L474.1 25.7L474.1 25.5ZM472.6 16.4C473.1 16.4 473.6 16.6 474 17C474.4 17.4 474.6 17.8 474.6 18.4C474.6 18.9 474.4 19.4 474 19.8C473.6 20.2 473.2 20.4 472.6 20.4C472.1 20.4 471.6 20.2 471.2 19.8C470.8 19.4 470.6 19 470.6 18.4C470.6 17.9 470.8 17.4 471.2 17C471.6 16.6 472 16.4 472.6 16.4Z" />
					<path id="Layer" class="shp1" d="M482.8 20.3L482.8 26L486.9 26L486.9 27.3L482.8 27.3L482.8 38.6C482.8 39.7 483 40.5 483.3 40.9C483.6 41.3 484 41.5 484.5 41.5C484.9 41.5 485.3 41.4 485.7 41.1C486.1 40.8 486.4 40.5 486.6 40L487.3 40C486.9 41.2 486.2 42.2 485.4 42.8C484.6 43.4 483.8 43.7 482.9 43.7C482.3 43.7 481.7 43.5 481.2 43.2C480.6 42.9 480.2 42.4 480 41.8C479.7 41.2 479.6 40.3 479.6 39L479.6 27.3L476.8 27.3L476.8 26.7C477.5 26.4 478.2 25.9 478.9 25.3C479.6 24.6 480.3 23.8 480.8 22.9C481.1 22.4 481.5 21.5 482 20.3L482.8 20.3Z" />
					<path id="Layer" class="shp1" d="M486.3 26L494.4 26L494.4 26.7L494 26.7C493.4 26.7 493 26.8 492.7 27.1C492.4 27.3 492.3 27.7 492.3 28C492.3 28.5 492.5 29.2 492.9 30.1L497.1 38.9L501 29.3C501.2 28.8 501.3 28.3 501.3 27.8C501.3 27.6 501.3 27.4 501.2 27.3C501.1 27.2 500.9 27.1 500.7 27C500.5 26.9 500.1 26.9 499.6 26.9L499.6 26L505.3 26L505.3 26.7C504.8 26.8 504.5 26.9 504.2 27C503.9 27.2 503.7 27.4 503.4 27.9C503.3 28.1 503.1 28.6 502.8 29.4L495.7 46.8C495 48.5 494.1 49.8 493 50.6C491.9 51.5 490.8 51.9 489.8 51.9C489.1 51.9 488.4 51.7 488 51.3C487.5 50.9 487.3 50.4 487.3 49.8C487.3 49.3 487.5 48.8 487.8 48.5C488.1 48.2 488.6 48 489.2 48C489.6 48 490.2 48.1 490.9 48.4C491.4 48.6 491.7 48.7 491.9 48.7C492.3 48.7 492.7 48.5 493.1 48.1C493.5 47.7 494 46.9 494.5 45.8L495.7 42.8L489.4 29.7C489.2 29.3 488.9 28.8 488.5 28.2C488.2 27.8 487.9 27.5 487.7 27.3C487.4 27.1 486.9 26.9 486.3 26.8L486.3 26L486.3 26Z" />
				</g>
			</g>
		</g>
	</g>
</svg>